<?xml version="1.0" encoding="UTF-8"?>
<!DOCTYPE svg PUBLIC "-//W3C//DTD SVG 1.1//EN" "http://www.w3.org/Graphics/SVG/1.1/DTD/svg11.dtd">
<svg xmlns="http://www.w3.org/2000/svg" version="1.1" width="1024px" height="1024px" style="shape-rendering:geometricPrecision; text-rendering:geometricPrecision; image-rendering:optimizeQuality; fill-rule:evenodd; clip-rule:evenodd" xmlns:xlink="http://www.w3.org/1999/xlink">
<g><path style="opacity:0.004" fill="#354757" d="M 419.5,5.5 C 420.833,6.16667 420.833,6.16667 419.5,5.5 Z"/></g>
<g><path style="opacity:0.004" fill="#31414c" d="M 635.5,13.5 C 636.833,14.1667 636.833,14.1667 635.5,13.5 Z"/></g>
<g><path style="opacity:0.004" fill="#323f48" d="M 659.5,13.5 C 660.833,14.1667 660.833,14.1667 659.5,13.5 Z"/></g>
<g><path style="opacity:0.004" fill="#343c3f" d="M 723.5,13.5 C 724.833,14.1667 724.833,14.1667 723.5,13.5 Z"/></g>
<g><path style="opacity:0.004" fill="#3b3d3d" d="M 175.5,16.5 C 176.833,17.1667 176.833,17.1667 175.5,16.5 Z"/></g>
<g><path style="opacity:0.004" fill="#334659" d="M 399.5,24.5 C 400.833,25.1667 400.833,25.1667 399.5,24.5 Z"/></g>
<g><path style="opacity:0.004" fill="#3d3f3f" d="M 997.5,30.5 C 998.833,31.1667 998.833,31.1667 997.5,30.5 Z"/></g>
<g><path style="opacity:0.004" fill="#34434d" d="M 307.5,53.5 C 308.833,54.1667 308.833,54.1667 307.5,53.5 Z"/></g>
<g><path style="opacity:0.004" fill="#3d3e3e" d="M 107.5,61.5 C 108.833,62.1667 108.833,62.1667 107.5,61.5 Z"/></g>
<g><path style="opacity:0.004" fill="#304b63" d="M 611.5,61.5 C 612.833,62.1667 612.833,62.1667 611.5,61.5 Z"/></g>
<g><path style="opacity:0.004" fill="#373e3e" d="M 795.5,61.5 C 796.833,62.1667 796.833,62.1667 795.5,61.5 Z"/></g>
<g><path style="opacity:0.004" fill="#3c3e3d" d="M 963.5,101.5 C 964.833,102.167 964.833,102.167 963.5,101.5 Z"/></g>
<g><path style="opacity:0.004" fill="#354b5f" d="M 259.5,141.5 C 260.833,142.167 260.833,142.167 259.5,141.5 Z"/></g>
<g><path style="opacity:0.004" fill="#363b3f" d="M 899.5,181.5 C 900.833,182.167 900.833,182.167 899.5,181.5 Z"/></g>
<g><path style="opacity:0.004" fill="#44a9f7" d="M 502.5,194.5 C 503.833,195.167 503.833,195.167 502.5,194.5 Z"/></g>
<g><path style="opacity:0.97" fill="#44b3fe" d="M 534.5,198.5 C 536.631,199.314 538.964,199.814 541.5,200C 524.85,199.689 508.183,199.522 491.5,199.5C 485.841,200.2 480.175,200.366 474.5,200C 494.447,197.336 514.447,196.836 534.5,198.5 Z"/></g>
<g><path style="opacity:0.004" fill="#43a9f7" d="M 456.5,200.5 C 456.897,199.475 457.563,199.308 458.5,200C 457.906,200.464 457.239,200.631 456.5,200.5 Z"/></g>
<g><path style="opacity:0.995" fill="#40adfe" d="M 534.5,198.5 C 514.447,196.836 494.447,197.336 474.5,200C 480.175,200.366 485.841,200.2 491.5,199.5C 493.068,201.144 494.735,201.811 496.5,201.5C 494.803,202.364 493.637,203.697 493,205.5C 492.692,204.692 492.192,204.025 491.5,203.5C 490.382,205.867 489.716,208.034 489.5,210C 491.333,210.5 492.5,211.667 493,213.5C 493.333,213.167 493.667,212.833 494,212.5C 495.667,215.167 497.333,215.167 499,212.5C 499.483,213.448 499.649,214.448 499.5,215.5C 493.478,216.611 487.478,216.778 481.5,216C 481.833,216.333 482.167,216.667 482.5,217C 479.294,217.296 476.128,217.796 473,218.5C 471.715,218.05 470.548,217.383 469.5,216.5C 468.304,216.846 468.304,217.346 469.5,218C 467,218.833 464.5,219.667 462,220.5C 461.055,220.095 460.388,219.428 460,218.5C 459.026,220.878 458.359,220.544 458,217.5C 456.128,218.824 455.295,220.324 455.5,222C 457.058,222.21 458.391,222.71 459.5,223.5C 413.841,233.538 377.175,257.204 349.5,294.5C 349.631,293.761 349.464,293.094 349,292.5C 347.907,294.349 346.574,296.016 345,297.5C 344.282,296.549 343.449,296.383 342.5,297C 343.554,298.388 343.72,299.888 343,301.5C 338.259,307.977 334.925,314.977 333,322.5C 333.278,321.584 333.778,320.918 334.5,320.5C 332.008,327.984 329.341,335.317 326.5,342.5C 326.649,341.448 326.483,340.448 326,339.5C 325.552,341.224 324.718,341.891 323.5,341.5C 323.833,342.167 324.167,342.833 324.5,343.5C 323.227,348.136 322.06,352.803 321,357.5C 320.922,355.343 320.755,353.343 320.5,351.5C 319.719,352.729 319.219,354.062 319,355.5C 318.346,354.304 317.846,354.304 317.5,355.5C 318.709,357.415 320.042,359.248 321.5,361C 320.57,367.716 319.57,374.383 318.5,381C 325.275,387.08 333.275,389.413 342.5,388C 339.964,387.814 337.631,387.314 335.5,386.5C 356.503,386.667 377.503,386.5 398.5,386C 403.016,385.58 406.35,383.413 408.5,379.5C 409.397,380.598 410.23,380.598 411,379.5C 411.91,374.369 413.41,369.869 415.5,366C 415.056,364.238 414.556,364.405 414,366.5C 413.183,363.156 414.016,361.156 416.5,360.5C 415.515,358.902 415.349,357.235 416,355.5C 416.654,356.696 417.154,356.696 417.5,355.5C 417.006,353.974 416.339,352.641 415.5,351.5C 419.659,337.376 427.326,325.709 438.5,316.5C 437.488,318.1 437.988,319.434 440,320.5C 441.415,317.782 443.415,317.115 446,318.5C 448.293,316.152 448.46,313.985 446.5,312C 447.766,311.691 448.933,311.191 450,310.5C 450.333,310.833 450.667,311.167 451,311.5C 452.879,305.904 456.545,303.238 462,303.5C 462.308,302.692 462.808,302.025 463.5,301.5C 464.5,302.833 465.5,304.167 466.5,305.5C 468.679,304.243 470.679,302.743 472.5,301C 471.167,299.667 471.167,298.333 472.5,297C 475.529,296.268 478.529,295.435 481.5,294.5C 482.647,294.818 483.481,295.484 484,296.5C 486.982,295.823 489.815,295.823 492.5,296.5C 494.722,294.385 496.888,294.719 499,297.5C 499.333,296.833 499.667,296.167 500,295.5C 505.134,295.98 510.634,296.147 516.5,296C 518.303,296.637 519.636,297.803 520.5,299.5C 518.615,300.197 518.282,301.197 519.5,302.5C 518.758,303.287 517.925,303.953 517,304.5C 514.391,303.091 512.558,303.758 511.5,306.5C 503.399,306.173 495.399,306.839 487.5,308.5C 486.849,307.909 486.182,307.243 485.5,306.5C 484.289,307.274 484.289,308.107 485.5,309C 483.581,310.934 482.081,310.767 481,308.5C 478.939,311.083 476.272,312.749 473,313.5C 471.037,310.054 469.704,310.054 469,313.5C 465.89,312.327 465.723,312.827 468.5,315C 467.552,315.483 466.552,315.649 465.5,315.5C 465.649,314.448 465.483,313.448 465,312.5C 463.983,314.376 463.149,316.376 462.5,318.5C 460.336,318.998 458.669,320.164 457.5,322C 455.567,322.783 454.067,322.283 453,320.5C 452.405,321.899 452.572,323.232 453.5,324.5C 441.588,334.343 433.754,346.676 430,361.5C 430.278,360.584 430.778,359.918 431.5,359.5C 429.911,369.214 428.077,378.88 426,388.5C 423.65,393.348 420.15,397.015 415.5,399.5C 409.603,400.37 403.436,400.37 397,399.5C 396.167,399.833 395.333,400.167 394.5,400.5C 396.621,400.54 398.621,401.04 400.5,402C 397.833,402.667 395.167,402.667 392.5,402C 393.654,401.086 393.487,400.253 392,399.5C 385.709,399.877 379.376,400.21 373,400.5C 371,399.833 369,399.167 367,398.5C 366.311,399.357 365.478,400.023 364.5,400.5C 359.277,399.416 359.277,399.916 364.5,402C 364,402.167 363.5,402.333 363,402.5C 360.394,402.522 357.727,402.188 355,401.5C 353.969,403.421 352.469,403.421 350.5,401.5C 351.506,400.604 351.506,399.938 350.5,399.5C 349.5,400.833 348.5,400.833 347.5,399.5C 346.614,400.325 346.281,401.325 346.5,402.5C 341.78,402.775 341.446,401.941 345.5,400C 344.007,398.632 342.507,398.465 341,399.5C 340.667,398.833 340.333,398.167 340,397.5C 339.228,398.849 338.061,399.682 336.5,400C 337.949,401.117 339.616,401.784 341.5,402C 338.812,402.392 336.145,402.892 333.5,403.5C 330.885,402.731 328.219,402.397 325.5,402.5C 323.079,402.122 320.746,401.455 318.5,400.5C 311.073,396.336 306.573,390.003 305,381.5C 304.5,374.174 304.334,366.841 304.5,359.5C 304.833,359.5 305.167,359.5 305.5,359.5C 307.451,337.985 313.785,317.985 324.5,299.5C 324.369,300.239 324.536,300.906 325,301.5C 331.99,287.684 340.823,275.184 351.5,264C 350.906,263.536 350.239,263.369 349.5,263.5C 350.5,262.167 351.5,260.833 352.5,259.5C 355.5,257.167 358.167,254.5 360.5,251.5C 364.518,248.476 368.518,245.476 372.5,242.5C 371.537,243.363 371.537,244.03 372.5,244.5C 374.884,242.115 377.55,240.115 380.5,238.5C 382.167,240.167 383.167,239.833 383.5,237.5C 383.253,236.287 382.586,235.62 381.5,235.5C 383.147,233.674 385.147,232.34 387.5,231.5C 386.537,232.363 386.537,233.03 387.5,233.5C 390.699,231.136 394.032,228.97 397.5,227C 398.784,226.316 399.951,226.483 401,227.5C 401.333,226.5 401.667,225.5 402,224.5C 402.333,224.833 402.667,225.167 403,225.5C 407.765,221.227 413.265,218.061 419.5,216C 418.552,215.517 417.552,215.351 416.5,215.5C 454.554,198.874 493.888,193.207 534.5,198.5 Z"/></g>
<g><path style="opacity:0.995" fill="#40adfe" d="M 534.5,198.5 C 543.216,198.506 551.882,199.839 560.5,202.5C 554.846,201.556 549.18,201.056 543.5,201C 549.007,201.912 554.341,203.246 559.5,205C 554.516,204.574 549.683,204.408 545,204.5C 544.5,205 544,205.5 543.5,206C 545.112,206.72 546.612,206.554 548,205.5C 548.317,207.301 548.984,207.634 550,206.5C 551,207.167 552,207.833 553,208.5C 555.466,207.212 557.966,207.212 560.5,208.5C 561.929,207.065 563.595,206.065 565.5,205.5C 572.452,206.81 579.119,208.977 585.5,212C 583.087,214.643 583.92,215.809 588,215.5C 590.253,215.369 592.419,214.869 594.5,214C 592.934,213.392 591.6,212.558 590.5,211.5C 591.5,211.5 592.5,211.5 593.5,211.5C 594.78,212.931 596.447,213.598 598.5,213.5C 602.849,216.341 607.516,218.674 612.5,220.5C 616.577,223.227 620.91,225.561 625.5,227.5C 638.054,236.378 650.054,246.044 661.5,256.5C 664.195,259.526 666.862,262.526 669.5,265.5C 674.581,271.908 679.248,278.575 683.5,285.5C 682.637,284.537 681.97,284.537 681.5,285.5C 682.752,287.001 683.752,288.668 684.5,290.5C 684.192,291.308 683.692,291.975 683,292.5C 682.066,289.035 680.566,288.702 678.5,291.5C 677.403,289.771 676.237,288.104 675,286.5C 672.919,288.557 673.086,290.223 675.5,291.5C 673.692,292.317 672.192,291.65 671,289.5C 669.853,290.458 668.853,290.125 668,288.5C 666.194,290.952 664.694,290.619 663.5,287.5C 662.893,287.624 662.56,287.957 662.5,288.5C 645.352,268.197 625.019,251.697 601.5,239C 590.345,233.787 579.012,229.287 567.5,225.5C 568.978,225.762 570.311,225.429 571.5,224.5C 567.129,223.491 562.796,222.324 558.5,221C 559.833,220 559.833,219 558.5,218C 557.056,217.219 555.723,217.386 554.5,218.5C 555.376,219.251 556.376,219.751 557.5,220C 554.793,220.328 552.126,219.995 549.5,219C 550.5,218.667 551.5,218.333 552.5,218C 550.553,217.009 548.553,216.675 546.5,217C 546.833,217.333 547.167,217.667 547.5,218C 545.167,218.333 542.833,218.667 540.5,219C 547.116,219.872 553.449,221.372 559.5,223.5C 538.512,219.248 517.512,217.248 496.5,217.5C 499.984,216.835 503.651,216.501 507.5,216.5C 518.187,217.145 528.853,217.645 539.5,218C 526.241,216.107 512.908,215.273 499.5,215.5C 499.649,214.448 499.483,213.448 499,212.5C 497.333,215.167 495.667,215.167 494,212.5C 493.667,212.833 493.333,213.167 493,213.5C 492.5,211.667 491.333,210.5 489.5,210C 489.716,208.034 490.382,205.867 491.5,203.5C 492.192,204.025 492.692,204.692 493,205.5C 493.637,203.697 494.803,202.364 496.5,201.5C 494.735,201.811 493.068,201.144 491.5,199.5C 508.183,199.522 524.85,199.689 541.5,200C 538.964,199.814 536.631,199.314 534.5,198.5 Z"/></g>
<g><path style="opacity:0.004" fill="#3fa4f2" d="M 558.5,199.5 C 559.833,200.167 559.833,200.167 558.5,199.5 Z"/></g>
<g><path style="opacity:0.004" fill="#43a7f5" d="M 452.5,201.5 C 452.897,200.475 453.563,200.308 454.5,201C 453.906,201.464 453.239,201.631 452.5,201.5 Z"/></g>
<g><path style="opacity:0.004" fill="#44a6f5" d="M 563.5,200.5 C 564.833,201.167 564.833,201.167 563.5,200.5 Z"/></g>
<g><path style="opacity:0.004" fill="#383e41" d="M 107.5,205.5 C 108.833,206.167 108.833,206.167 107.5,205.5 Z"/></g>
<g><path style="opacity:0.012" fill="#41a9f5" d="M 593.5,210.5 C 594.833,211.167 594.833,211.167 593.5,210.5 Z"/></g>
<g><path style="opacity:0.989" fill="#42affd" d="M 560.5,202.5 C 570.939,204.315 580.939,207.315 590.5,211.5C 591.6,212.558 592.934,213.392 594.5,214C 592.419,214.869 590.253,215.369 588,215.5C 583.92,215.809 583.087,214.643 585.5,212C 579.119,208.977 572.452,206.81 565.5,205.5C 563.595,206.065 561.929,207.065 560.5,208.5C 557.966,207.212 555.466,207.212 553,208.5C 552,207.833 551,207.167 550,206.5C 548.984,207.634 548.317,207.301 548,205.5C 546.612,206.554 545.112,206.72 543.5,206C 544,205.5 544.5,205 545,204.5C 549.683,204.408 554.516,204.574 559.5,205C 554.341,203.246 549.007,201.912 543.5,201C 549.18,201.056 554.846,201.556 560.5,202.5 Z"/></g>
<g><path style="opacity:0.004" fill="#42a7f5" d="M 598.5,212.5 C 599.833,213.167 599.833,213.167 598.5,212.5 Z"/></g>
<g><path style="opacity:0.004" fill="#43aaf7" d="M 412.5,216.5 C 411.833,215.167 411.833,215.167 412.5,216.5 Z"/></g>
<g><path style="opacity:0.004" fill="#44a9f6" d="M 605.5,215.5 C 606.833,216.167 606.833,216.167 605.5,215.5 Z"/></g>
<g><path style="opacity:0.004" fill="#43a8f7" d="M 407.5,216.5 C 408.833,217.167 408.833,217.167 407.5,216.5 Z"/></g>
<g><path style="opacity:0.981" fill="#43b1fe" d="M 499.5,215.5 C 512.908,215.273 526.241,216.107 539.5,218C 528.853,217.645 518.187,217.145 507.5,216.5C 503.651,216.501 499.984,216.835 496.5,217.5C 484.125,218.621 471.792,220.621 459.5,223.5C 458.391,222.71 457.058,222.21 455.5,222C 455.295,220.324 456.128,218.824 458,217.5C 458.359,220.544 459.026,220.878 460,218.5C 460.388,219.428 461.055,220.095 462,220.5C 464.5,219.667 467,218.833 469.5,218C 468.304,217.346 468.304,216.846 469.5,216.5C 470.548,217.383 471.715,218.05 473,218.5C 476.128,217.796 479.294,217.296 482.5,217C 482.167,216.667 481.833,216.333 481.5,216C 487.478,216.778 493.478,216.611 499.5,215.5 Z"/></g>
<g><path style="opacity:0.004" fill="#343e47" d="M 884.5,216.5 C 885.833,217.167 885.833,217.167 884.5,216.5 Z"/></g>
<g><path style="opacity:0.993" fill="#42b1fe" d="M 567.5,225.5 C 564.572,225.435 561.905,224.768 559.5,223.5C 553.449,221.372 547.116,219.872 540.5,219C 542.833,218.667 545.167,218.333 547.5,218C 547.167,217.667 546.833,217.333 546.5,217C 548.553,216.675 550.553,217.009 552.5,218C 551.5,218.333 550.5,218.667 549.5,219C 552.126,219.995 554.793,220.328 557.5,220C 556.376,219.751 555.376,219.251 554.5,218.5C 555.723,217.386 557.056,217.219 558.5,218C 559.833,219 559.833,220 558.5,221C 562.796,222.324 567.129,223.491 571.5,224.5C 570.311,225.429 568.978,225.762 567.5,225.5 Z"/></g>
<g><path style="opacity:0.004" fill="#42a5f5" d="M 612.5,219.5 C 613.833,220.167 613.833,220.167 612.5,219.5 Z"/></g>
<g><path style="opacity:0.006" fill="#44abfc" d="M 538.5,222.5 C 539.386,221.224 540.386,221.224 541.5,222.5C 540.767,223.087 539.767,223.087 538.5,222.5 Z"/></g>
<g><path style="opacity:0.008" fill="#46a8f7" d="M 393.5,226.5 C 392.833,225.167 392.833,225.167 393.5,226.5 Z"/></g>
<g><path style="opacity:0.012" fill="#43a6f5" d="M 625.5,226.5 C 626.833,227.167 626.833,227.167 625.5,226.5 Z"/></g>
<g><path style="opacity:0.998" fill="#44b0fc" d="M 416.5,215.5 C 417.552,215.351 418.552,215.517 419.5,216C 413.265,218.061 407.765,221.227 403,225.5C 402.667,225.167 402.333,224.833 402,224.5C 401.667,225.5 401.333,226.5 401,227.5C 399.951,226.483 398.784,226.316 397.5,227C 394.032,228.97 390.699,231.136 387.5,233.5C 386.537,233.03 386.537,232.363 387.5,231.5C 389.5,229.833 391.5,228.167 393.5,226.5C 399.999,223.418 406.332,220.085 412.5,216.5C 413.833,216.167 415.167,215.833 416.5,215.5 Z"/></g>
<g><path style="opacity:0.012" fill="#43a7f3" d="M 373.5,240.5 C 372.833,239.167 372.833,239.167 373.5,240.5 Z"/></g>
<g><path style="opacity:0.976" fill="#45b1fc" d="M 381.5,235.5 C 382.586,235.62 383.253,236.287 383.5,237.5C 383.167,239.833 382.167,240.167 380.5,238.5C 377.55,240.115 374.884,242.115 372.5,244.5C 371.537,244.03 371.537,243.363 372.5,242.5C 372.833,241.833 373.167,241.167 373.5,240.5C 376.167,238.833 378.833,237.167 381.5,235.5 Z"/></g>
<g><path style="opacity:0.004" fill="#42a5f4" d="M 367.5,241.5 C 368.833,242.167 368.833,242.167 367.5,241.5 Z"/></g>
<g><path style="opacity:0.004" fill="#374248" d="M 131.5,245.5 C 132.833,246.167 132.833,246.167 131.5,245.5 Z"/></g>
<g><path style="opacity:0.008" fill="#43a8f3" d="M 360.5,251.5 C 359.833,250.167 359.833,250.167 360.5,251.5 Z"/></g>
<g><path style="opacity:0.008" fill="#3fa7f5" d="M 661.5,255.5 C 662.833,256.167 662.833,256.167 661.5,255.5 Z"/></g>
<g><path style="opacity:0.004" fill="#42a7f5" d="M 352.5,259.5 C 351.833,258.167 351.833,258.167 352.5,259.5 Z"/></g>
<g><path style="opacity:0.004" fill="#3ea4f5" d="M 669.5,264.5 C 670.833,265.167 670.833,265.167 669.5,264.5 Z"/></g>
<g><path style="opacity:0.004" fill="#42a8f6" d="M 339.5,274.5 C 338.833,273.167 338.833,273.167 339.5,274.5 Z"/></g>
<g><path style="opacity:0.994" fill="#43b0fb" d="M 349.5,263.5 C 350.239,263.369 350.906,263.536 351.5,264C 340.823,275.184 331.99,287.684 325,301.5C 324.536,300.906 324.369,300.239 324.5,299.5C 328.914,290.256 333.914,281.922 339.5,274.5C 342.833,270.833 346.167,267.167 349.5,263.5 Z"/></g>
<g><path style="opacity:0.995" fill="#41affd" d="M 683.5,285.5 C 693.13,299.1 699.796,314.1 703.5,330.5C 703.649,331.552 703.483,332.552 703,333.5C 702.027,331.608 701.36,329.608 701,327.5C 699.502,325.386 697.669,324.886 695.5,326C 696.711,324.156 698.044,323.322 699.5,323.5C 698.754,322.264 698.421,320.93 698.5,319.5C 694.944,319.725 694.61,318.892 697.5,317C 695.675,312.868 693.841,308.701 692,304.5C 690.887,303.289 689.72,303.289 688.5,304.5C 687.77,302.659 687.103,300.825 686.5,299C 687.167,298.667 687.833,298.333 688.5,298C 687.107,296.829 686.273,295.329 686,293.5C 684.237,293.948 682.404,294.948 680.5,296.5C 678.431,296.176 678.098,295.342 679.5,294C 678.428,292.716 677.095,292.383 675.5,293C 676.738,292.31 676.738,291.81 675.5,291.5C 673.086,290.223 672.919,288.557 675,286.5C 676.237,288.104 677.403,289.771 678.5,291.5C 680.566,288.702 682.066,289.035 683,292.5C 683.692,291.975 684.192,291.308 684.5,290.5C 683.752,288.668 682.752,287.001 681.5,285.5C 681.97,284.537 682.637,284.537 683.5,285.5 Z"/></g>
<g><path style="opacity:1" fill="#44b0fd" d="M 349.5,294.5 C 344.464,303.189 339.464,311.855 334.5,320.5C 333.778,320.918 333.278,321.584 333,322.5C 334.925,314.977 338.259,307.977 343,301.5C 343.72,299.888 343.554,298.388 342.5,297C 343.449,296.383 344.282,296.549 345,297.5C 346.574,296.016 347.907,294.349 349,292.5C 349.464,293.094 349.631,293.761 349.5,294.5 Z"/></g>
<g><path style="opacity:0.004" fill="#41a5f5" d="M 694.5,301.5 C 695.833,302.167 695.833,302.167 694.5,301.5 Z"/></g>
<g><path style="opacity:0.004" fill="#43a4f3" d="M 312.5,319.5 C 311.833,318.167 311.833,318.167 312.5,319.5 Z"/></g>
<g><path style="opacity:0.004" fill="#42a5f4" d="M 701.5,318.5 C 702.833,319.167 702.833,319.167 701.5,318.5 Z"/></g>
<g><path style="opacity:0.008" fill="#45a5f5" d="M 312.5,319.5 C 313.833,320.167 313.833,320.167 312.5,319.5 Z"/></g>
<g><path style="opacity:0.993" fill="#42affd" d="M 487.5,308.5 C 488.919,309.451 490.585,309.784 492.5,309.5C 485.57,311.032 478.903,313.366 472.5,316.5C 470.847,316.66 469.514,317.326 468.5,318.5C 462.631,320.596 457.631,323.929 453.5,328.5C 448.898,331.267 445.064,334.934 442,339.5C 438.201,346.102 434.701,352.768 431.5,359.5C 430.778,359.918 430.278,360.584 430,361.5C 433.754,346.676 441.588,334.343 453.5,324.5C 452.572,323.232 452.405,321.899 453,320.5C 454.067,322.283 455.567,322.783 457.5,322C 458.669,320.164 460.336,318.998 462.5,318.5C 463.149,316.376 463.983,314.376 465,312.5C 465.483,313.448 465.649,314.448 465.5,315.5C 466.552,315.649 467.552,315.483 468.5,315C 465.723,312.827 465.89,312.327 469,313.5C 469.704,310.054 471.037,310.054 473,313.5C 476.272,312.749 478.939,311.083 481,308.5C 482.081,310.767 483.581,310.934 485.5,309C 484.289,308.107 484.289,307.274 485.5,306.5C 486.182,307.243 486.849,307.909 487.5,308.5 Z"/></g>
<g><path style="opacity:0.004" fill="#363c3e" d="M 987.5,325.5 C 988.833,326.167 988.833,326.167 987.5,325.5 Z"/></g>
<g><path style="opacity:0.004" fill="#43aafd" d="M 453.5,328.5 C 454.833,329.167 454.833,329.167 453.5,328.5 Z"/></g>
<g><path style="opacity:0.008" fill="#42a6f5" d="M 705.5,330.5 C 706.833,331.167 706.833,331.167 705.5,330.5 Z"/></g>
<g><path style="opacity:0.004" fill="#44acfe" d="M 449.5,333.5 C 450.833,334.167 450.833,334.167 449.5,333.5 Z"/></g>
<g><path style="opacity:0.004" fill="#46aefb" d="M 447.5,334.5 C 448.833,335.167 448.833,335.167 447.5,334.5 Z"/></g>
<g><path style="opacity:0.004" fill="#47aeff" d="M 567.5,336.5 C 568.833,337.167 568.833,337.167 567.5,336.5 Z"/></g>
<g><path style="opacity:0.008" fill="#43a5f6" d="M 306.5,340.5 C 307.833,341.167 307.833,341.167 306.5,340.5 Z"/></g>
<g><path style="opacity:0.004" fill="#43acfd" d="M 442.5,340.5 C 443.833,341.167 443.833,341.167 442.5,340.5 Z"/></g>
<g><path style="opacity:0.008" fill="#44a8f4" d="M 305.5,343.5 C 306.833,344.167 306.833,344.167 305.5,343.5 Z"/></g>
<g><path style="opacity:0.008" fill="#46adff" d="M 578.5,349.5 C 579.833,350.167 579.833,350.167 578.5,349.5 Z"/></g>
<g><path style="opacity:0.004" fill="#334758" d="M 883.5,349.5 C 884.833,350.167 884.833,350.167 883.5,349.5 Z"/></g>
<g><path style="opacity:0.004" fill="#343b3d" d="M 1003.5,349.5 C 1004.83,350.167 1004.83,350.167 1003.5,349.5 Z"/></g>
<g><path style="opacity:0.006" fill="#43a6f7" d="M 303.5,352.5 C 304.598,353.601 304.765,354.934 304,356.5C 303.51,355.207 303.343,353.873 303.5,352.5 Z"/></g>
<g><path style="opacity:0.004" fill="#41a5f6" d="M 304.5,359.5 C 303.475,359.103 303.308,358.437 304,357.5C 304.464,358.094 304.631,358.761 304.5,359.5 Z"/></g>
<g><path style="opacity:0.004" fill="#48afff" d="M 581.5,358.5 C 582.833,359.167 582.833,359.167 581.5,358.5 Z"/></g>
<g><path style="opacity:0.99" fill="#44b5fe" d="M 305.5,359.5 C 306.309,357.708 306.809,355.708 307,353.5C 307.059,362.496 306.726,371.496 306,380.5C 305.5,373.508 305.334,366.508 305.5,359.5 Z"/></g>
<g><path style="opacity:0.988" fill="#43b0fe" d="M 415.5,351.5 C 416.339,352.641 417.006,353.974 417.5,355.5C 417.154,356.696 416.654,356.696 416,355.5C 415.349,357.235 415.515,358.902 416.5,360.5C 414.016,361.156 413.183,363.156 414,366.5C 414.556,364.405 415.056,364.238 415.5,366C 413.41,369.869 411.91,374.369 411,379.5C 410.23,380.598 409.397,380.598 408.5,379.5C 409.83,369.833 412.163,360.499 415.5,351.5 Z"/></g>
<g><path style="opacity:0.004" fill="#3fa7f8" d="M 710.5,364.5 C 711.833,365.167 711.833,365.167 710.5,364.5 Z"/></g>
<g><path style="opacity:0.004" fill="#45adfe" d="M 584.5,366.5 C 585.833,367.167 585.833,367.167 584.5,366.5 Z"/></g>
<g><path style="opacity:0.984" fill="#43b2fe" d="M 587.5,375.5 C 586.811,366.048 584.478,357.048 580.5,348.5C 580.393,346.621 580.893,346.288 582,347.5C 582.885,350 584.052,352.333 585.5,354.5C 586.281,353.271 586.781,351.938 587,350.5C 587.779,352.807 587.279,354.807 585.5,356.5C 589.112,365.158 590.279,374.158 589,383.5C 588.817,380.635 588.317,377.969 587.5,375.5 Z"/></g>
<g><path style="opacity:0.995" fill="#40aefe" d="M 604.5,363.5 C 603.71,362.391 603.21,361.058 603,359.5C 604.078,371.547 603.578,383.547 601.5,395.5C 601.667,396.167 601.833,396.833 602,397.5C 602.232,396.263 602.732,395.263 603.5,394.5C 602.098,402.978 599.265,410.978 595,418.5C 587.342,431.497 577.508,442.664 565.5,452C 548.833,464.667 532.167,477.333 515.5,490C 507.27,498.062 499.27,506.228 491.5,514.5C 491.631,513.761 491.464,513.094 491,512.5C 490.021,514.32 488.521,515.487 486.5,516C 487.15,517.609 486.65,519.109 485,520.5C 483.951,519.483 482.784,519.316 481.5,520C 482.815,521.395 482.481,522.395 480.5,523C 481.308,523.308 481.975,523.808 482.5,524.5C 481.687,525.814 480.687,526.981 479.5,528C 479.957,528.414 480.291,528.914 480.5,529.5C 477.388,535.57 474.721,541.904 472.5,548.5C 472.667,549.167 472.833,549.833 473,550.5C 473.232,549.263 473.732,548.263 474.5,547.5C 471.345,559.279 469.345,571.279 468.5,583.5C 467.683,581.031 467.183,578.365 467,575.5C 466.294,581.546 465.627,587.88 465,594.5C 464.71,592.956 464.044,591.623 463,590.5C 462.683,592.301 462.016,592.634 461,591.5C 460.727,593.101 460.227,594.601 459.5,596C 460.253,597.487 461.086,597.654 462,596.5C 464.289,599.09 463.789,600.923 460.5,602C 464.891,605.204 466.225,609.371 464.5,614.5C 465.311,615.216 465.978,616.05 466.5,617C 465.172,617.382 463.839,618.549 462.5,620.5C 463.641,621.425 463.641,622.259 462.5,623C 463.449,623.617 464.282,623.451 465,622.5C 465.827,623.662 466.66,624.829 467.5,626C 466.352,627.726 465.185,627.559 464,625.5C 462.385,626.656 462.385,627.989 464,629.5C 465.011,628.663 466.178,628.33 467.5,628.5C 467.413,631.598 467.913,631.932 469,629.5C 470.681,631.294 472.514,631.794 474.5,631C 475.345,632.558 474.679,633.558 472.5,634C 474.289,634.52 475.956,634.187 477.5,633C 477.591,630.697 476.257,629.03 473.5,628C 474.108,627.13 474.941,626.63 476,626.5C 496.493,627.828 516.993,627.828 537.5,626.5C 538.932,626.733 539.432,627.4 539,628.5C 532.492,628.64 525.992,628.64 519.5,628.5C 519.5,629.5 519.5,630.5 519.5,631.5C 521.792,631.244 523.959,631.577 526,632.5C 526.333,631.833 526.667,631.167 527,630.5C 528.333,631.833 529.667,633.167 531,634.5C 532.008,634.018 533.175,633.852 534.5,634C 535.833,633 535.833,632 534.5,631C 538.261,628.549 541.428,629.049 544,632.5C 544.383,631.944 544.883,631.611 545.5,631.5C 546.978,631.762 548.311,631.429 549.5,630.5C 548.975,629.808 548.308,629.308 547.5,629C 550.259,626.632 551.925,627.132 552.5,630.5C 552.881,631.931 553.881,632.764 555.5,633C 554.288,634.107 554.621,634.607 556.5,634.5C 550.774,640.252 543.774,643.418 535.5,644C 516.329,644.829 497.329,644.662 478.5,643.5C 499.427,642.678 520.427,642.178 541.5,642C 536.616,641.039 531.783,639.872 527,638.5C 526.228,638.645 525.561,638.978 525,639.5C 524.361,636.772 523.194,636.272 521.5,638C 521.833,638.333 522.167,638.667 522.5,639C 519.901,639.769 517.401,639.602 515,638.5C 514.255,639.99 513.088,640.99 511.5,641.5C 508.588,641.453 505.588,641.119 502.5,640.5C 501.478,639.646 500.645,638.646 500,637.5C 499.097,638.701 497.931,639.535 496.5,640C 497.167,640.333 497.833,640.667 498.5,641C 496.167,641.667 493.833,641.667 491.5,641C 491.833,640.667 492.167,640.333 492.5,640C 490.598,639.801 489.098,638.967 488,637.5C 487.517,638.448 487.351,639.448 487.5,640.5C 484.571,641.664 479.571,641.831 472.5,641C 468.113,640.271 464.447,638.271 461.5,635C 461.833,634 462.167,633 462.5,632C 460.5,631.333 458.5,631.333 456.5,632C 458.141,633.129 459.141,634.629 459.5,636.5C 457.139,634.806 455.139,632.806 453.5,630.5C 453.5,629.833 453.5,629.167 453.5,628.5C 454.65,629.85 455.317,629.684 455.5,628C 454.139,626.073 453.306,623.906 453,621.5C 453.333,617.335 453.166,613.502 452.5,610C 453.5,609.167 454.5,608.333 455.5,607.5C 454.471,607.704 453.471,607.204 452.5,606C 452.833,605.667 453.167,605.333 453.5,605C 451.834,602.52 451.001,599.687 451,596.5C 450.327,605.189 450.493,613.856 451.5,622.5C 447.872,596.378 449.372,570.378 456,544.5C 457.506,538.797 459.672,533.463 462.5,528.5C 462.369,529.239 462.536,529.906 463,530.5C 464.85,525.725 467.684,521.725 471.5,518.5C 471.167,517.833 470.833,517.167 470.5,516.5C 473.295,510.875 477.295,506.375 482.5,503C 481.978,502.439 481.645,501.772 481.5,501C 484.348,497.323 487.348,493.823 490.5,490.5C 490.03,489.537 489.363,489.537 488.5,490.5C 488.369,489.761 488.536,489.094 489,488.5C 507.68,471.146 527.513,455.313 548.5,441C 563.295,429.713 574.962,415.88 583.5,399.5C 584.248,401.735 585.081,401.402 586,398.5C 587.951,393.992 588.618,389.326 588,384.5C 587.802,386.382 587.302,388.048 586.5,389.5C 586.833,384.833 587.167,380.167 587.5,375.5C 588.317,377.969 588.817,380.635 589,383.5C 590.279,374.158 589.112,365.158 585.5,356.5C 587.279,354.807 587.779,352.807 587,350.5C 586.781,351.938 586.281,353.271 585.5,354.5C 584.052,352.333 582.885,350 582,347.5C 580.893,346.288 580.393,346.621 580.5,348.5C 559.42,317.64 530.086,304.64 492.5,309.5C 493.952,308.698 495.618,308.198 497.5,308C 504.5,307.667 511.5,307.333 518.5,307C 516.19,306.503 513.857,306.337 511.5,306.5C 512.558,303.758 514.391,303.091 517,304.5C 517.925,303.953 518.758,303.287 519.5,302.5C 518.282,301.197 518.615,300.197 520.5,299.5C 519.636,297.803 518.303,296.637 516.5,296C 510.634,296.147 505.134,295.98 500,295.5C 499.667,296.167 499.333,296.833 499,297.5C 496.888,294.719 494.722,294.385 492.5,296.5C 489.815,295.823 486.982,295.823 484,296.5C 483.481,295.484 482.647,294.818 481.5,294.5C 478.529,295.435 475.529,296.268 472.5,297C 471.167,298.333 471.167,299.667 472.5,301C 470.679,302.743 468.679,304.243 466.5,305.5C 465.5,304.167 464.5,302.833 463.5,301.5C 462.808,302.025 462.308,302.692 462,303.5C 456.545,303.238 452.879,305.904 451,311.5C 450.667,311.167 450.333,310.833 450,310.5C 448.933,311.191 447.766,311.691 446.5,312C 448.46,313.985 448.293,316.152 446,318.5C 443.415,317.115 441.415,317.782 440,320.5C 437.988,319.434 437.488,318.1 438.5,316.5C 451.697,303.064 467.697,294.564 486.5,291C 523.433,284.483 555.433,293.983 582.5,319.5C 594.617,331.734 601.95,346.401 604.5,363.5 Z"/></g>
<g><path style="opacity:0.004" fill="#42abff" d="M 544.5,318.5 C 545.833,319.167 545.833,319.167 544.5,318.5 Z"/></g>
<g><path style="opacity:0.012" fill="#44aefd" d="M 468.5,318.5 C 469.833,319.167 469.833,319.167 468.5,318.5 Z"/></g>
<g><path style="opacity:0.012" fill="#45aefe" d="M 472.5,317.5 C 471.833,318.167 471.833,318.167 472.5,317.5 Z"/></g>
<g><path style="opacity:0.004" fill="#44adfd" d="M 472.5,317.5 C 472.5,317.167 472.5,316.833 472.5,316.5C 475.167,316.833 475.167,317.167 472.5,317.5 Z"/></g>
<g><path style="opacity:0.008" fill="#43abfc" d="M 500.5,310.5 C 501.833,311.167 501.833,311.167 500.5,310.5 Z"/></g>
<g><path style="opacity:0.004" fill="#44adfc" d="M 495.5,310.5 C 496.833,311.167 496.833,311.167 495.5,310.5 Z"/></g>
<g><path style="opacity:0.004" fill="#44aefc" d="M 511.5,309.5 C 512.833,310.167 512.833,310.167 511.5,309.5 Z"/></g>
<g><path style="opacity:0.004" fill="#44adfd" d="M 506.5,309.5 C 507.833,310.167 507.833,310.167 506.5,309.5 Z"/></g>
<g><path style="opacity:0.996" fill="#44b6fe" d="M 511.5,306.5 C 513.857,306.337 516.19,306.503 518.5,307C 511.5,307.333 504.5,307.667 497.5,308C 495.618,308.198 493.952,308.698 492.5,309.5C 490.585,309.784 488.919,309.451 487.5,308.5C 495.399,306.839 503.399,306.173 511.5,306.5 Z"/></g>
<g><path style="opacity:0.993" fill="#47b9ff" d="M 495.5,291.5 C 506.033,290.177 516.699,290.344 527.5,292C 516.856,291.724 506.189,291.557 495.5,291.5 Z"/></g>
<g><path style="opacity:0.004" fill="#42abfd" d="M 430.5,370.5 C 431.833,371.167 431.833,371.167 430.5,370.5 Z"/></g>
<g><path style="opacity:0.983" fill="#42b1fe" d="M 326.5,342.5 C 324.098,353.379 322.932,364.379 323,375.5C 324.29,382.633 328.457,386.3 335.5,386.5C 337.631,387.314 339.964,387.814 342.5,388C 333.275,389.413 325.275,387.08 318.5,381C 319.57,374.383 320.57,367.716 321.5,361C 320.042,359.248 318.709,357.415 317.5,355.5C 317.846,354.304 318.346,354.304 319,355.5C 319.219,354.062 319.719,352.729 320.5,351.5C 320.755,353.343 320.922,355.343 321,357.5C 322.06,352.803 323.227,348.136 324.5,343.5C 324.167,342.833 323.833,342.167 323.5,341.5C 324.718,341.891 325.552,341.224 326,339.5C 326.483,340.448 326.649,341.448 326.5,342.5 Z"/></g>
<g><path style="opacity:0.991" fill="#41affc" d="M 709.5,363.5 C 710.05,369.384 710.716,375.218 711.5,381C 709.547,389.496 707.547,397.996 705.5,406.5C 704.732,407.263 704.232,408.263 704,409.5C 703.833,408.5 703.667,407.5 703.5,406.5C 704.762,402.901 705.262,399.234 705,395.5C 704.851,398.279 704.017,398.779 702.5,397C 703.09,395.491 703.756,393.991 704.5,392.5C 704.833,393.167 705.167,393.833 705.5,394.5C 705.833,393.167 706.167,391.833 706.5,390.5C 707.244,379.182 707.744,367.848 708,356.5C 708.186,359.036 708.686,361.369 709.5,363.5 Z"/></g>
<g><path style="opacity:0.004" fill="#366185" d="M 803.5,373.5 C 804.833,374.167 804.833,374.167 803.5,373.5 Z"/></g>
<g><path style="opacity:0.004" fill="#44aefe" d="M 585.5,373.5 C 586.525,373.897 586.692,374.563 586,375.5C 585.536,374.906 585.369,374.239 585.5,373.5 Z"/></g>
<g><path style="opacity:0.993" fill="#43b2fe" d="M 604.5,363.5 C 607.051,373.898 606.717,384.231 603.5,394.5C 602.732,395.263 602.232,396.263 602,397.5C 601.833,396.833 601.667,396.167 601.5,395.5C 603.578,383.547 604.078,371.547 603,359.5C 603.21,361.058 603.71,362.391 604.5,363.5 Z"/></g>
<g><path style="opacity:0.99" fill="#43b0fe" d="M 687.5,403.5 C 689.69,391.938 691.023,380.272 691.5,368.5C 691.334,364.486 691.501,360.486 692,356.5C 692.727,363.494 693.393,370.494 694,377.5C 694.92,377.93 695.753,378.264 696.5,378.5C 695.675,379.386 694.675,379.719 693.5,379.5C 692.717,383.146 692.55,386.812 693,390.5C 694.011,391.337 695.178,391.67 696.5,391.5C 696.649,392.552 696.483,393.552 696,394.5C 694.951,392.893 693.451,392.227 691.5,392.5C 690.857,397.601 689.691,402.601 688,407.5C 687.51,406.207 687.343,404.873 687.5,403.5 Z"/></g>
<g><path style="opacity:0.004" fill="#429eec" d="M 303.5,384.5 C 304.833,385.167 304.833,385.167 303.5,384.5 Z"/></g>
<g><path style="opacity:0.004" fill="#43aafa" d="M 428.5,384.5 C 429.833,385.167 429.833,385.167 428.5,384.5 Z"/></g>
<g><path style="opacity:0.004" fill="#40a5f4" d="M 710.5,385.5 C 711.525,385.897 711.692,386.563 711,387.5C 710.536,386.906 710.369,386.239 710.5,385.5 Z"/></g>
<g><path style="opacity:0.004" fill="#40a1ed" d="M 304.5,386.5 C 305.833,387.167 305.833,387.167 304.5,386.5 Z"/></g>
<g><path style="opacity:0.004" fill="#42a6f6" d="M 710.5,388.5 C 711.833,389.167 711.833,389.167 710.5,388.5 Z"/></g>
<g><path style="opacity:0.008" fill="#41a5f5" d="M 709.5,392.5 C 710.833,393.167 710.833,393.167 709.5,392.5 Z"/></g>
<g><path style="opacity:0.012" fill="#42a6f6" d="M 709.5,394.5 C 710.833,395.167 710.833,395.167 709.5,394.5 Z"/></g>
<g><path style="opacity:0.982" fill="#43b2fe" d="M 583.5,399.5 C 584.13,395.952 585.13,392.619 586.5,389.5C 587.302,388.048 587.802,386.382 588,384.5C 588.618,389.326 587.951,393.992 586,398.5C 585.081,401.402 584.248,401.735 583.5,399.5 Z"/></g>
<g><path style="opacity:0.993" fill="#41b1fe" d="M 415.5,399.5 C 412.519,402.488 408.852,404.154 404.5,404.5C 379.498,404.667 354.498,404.5 329.5,404C 327.942,403.79 326.609,403.29 325.5,402.5C 328.219,402.397 330.885,402.731 333.5,403.5C 336.145,402.892 338.812,402.392 341.5,402C 339.616,401.784 337.949,401.117 336.5,400C 338.061,399.682 339.228,398.849 340,397.5C 340.333,398.167 340.667,398.833 341,399.5C 342.507,398.465 344.007,398.632 345.5,400C 341.446,401.941 341.78,402.775 346.5,402.5C 346.281,401.325 346.614,400.325 347.5,399.5C 348.5,400.833 349.5,400.833 350.5,399.5C 351.506,399.938 351.506,400.604 350.5,401.5C 352.469,403.421 353.969,403.421 355,401.5C 357.727,402.188 360.394,402.522 363,402.5C 363.5,402.333 364,402.167 364.5,402C 359.277,399.916 359.277,399.416 364.5,400.5C 365.478,400.023 366.311,399.357 367,398.5C 369,399.167 371,399.833 373,400.5C 379.376,400.21 385.709,399.877 392,399.5C 393.487,400.253 393.654,401.086 392.5,402C 395.167,402.667 397.833,402.667 400.5,402C 398.621,401.04 396.621,400.54 394.5,400.5C 395.333,400.167 396.167,399.833 397,399.5C 403.436,400.37 409.603,400.37 415.5,399.5 Z"/></g>
<g><path style="opacity:0.004" fill="#43a6f4" d="M 708.5,400.5 C 709.833,401.167 709.833,401.167 708.5,400.5 Z"/></g>
<g><path style="opacity:0.004" fill="#43a1ed" d="M 319.5,404.5 C 320.833,405.167 320.833,405.167 319.5,404.5 Z"/></g>
<g><path style="opacity:0.345" fill="#3ea4f5" d="M 318.5,400.5 C 320.746,401.455 323.079,402.122 325.5,402.5C 326.609,403.29 327.942,403.79 329.5,404C 354.498,404.5 379.498,404.667 404.5,404.5C 403.391,405.29 402.058,405.79 400.5,406C 401.696,406.654 401.696,407.154 400.5,407.5C 376.325,405.689 351.992,404.855 327.5,405C 325.238,404.358 323.071,403.525 321,402.5C 319.692,403.151 318.859,402.485 318.5,400.5 Z"/></g>
<g><path style="opacity:0.004" fill="#42a6f5" d="M 408.5,405.5 C 408.897,404.475 409.563,404.308 410.5,405C 409.906,405.464 409.239,405.631 408.5,405.5 Z"/></g>
<g><path style="opacity:0.004" fill="#43a4f3" d="M 707.5,404.5 C 708.573,405.251 708.74,406.251 708,407.5C 707.517,406.552 707.351,405.552 707.5,404.5 Z"/></g>
<g><path style="opacity:0.004" fill="#41a0ee" d="M 324.5,406.5 C 325.833,407.167 325.833,407.167 324.5,406.5 Z"/></g>
<g><path style="opacity:0.008" fill="#42a6f1" d="M 332.5,406.5 C 333.833,407.167 333.833,407.167 332.5,406.5 Z"/></g>
<g><path style="opacity:0.01" fill="#40a3f1" d="M 335.5,407.5 C 335.897,406.475 336.563,406.308 337.5,407C 336.906,407.464 336.239,407.631 335.5,407.5 Z"/></g>
<g><path style="opacity:0.014" fill="#42a5f1" d="M 339.5,407.5 C 340.251,406.427 341.251,406.26 342.5,407C 341.552,407.483 340.552,407.649 339.5,407.5 Z"/></g>
<g><path style="opacity:0.012" fill="#3ea8f4" d="M 343.5,407.5 C 343.897,406.475 344.563,406.308 345.5,407C 344.906,407.464 344.239,407.631 343.5,407.5 Z"/></g>
<g><path style="opacity:0.004" fill="#41a6f4" d="M 348.5,407.5 C 348.897,406.475 349.563,406.308 350.5,407C 349.906,407.464 349.239,407.631 348.5,407.5 Z"/></g>
<g><path style="opacity:0.007" fill="#41a6f3" d="M 351.5,407.5 C 353.628,406.371 355.961,406.204 358.5,407C 356.19,407.497 353.857,407.663 351.5,407.5 Z"/></g>
<g><path style="opacity:0.012" fill="#40a6f6" d="M 359.5,407.5 C 359.897,406.475 360.563,406.308 361.5,407C 360.906,407.464 360.239,407.631 359.5,407.5 Z"/></g>
<g><path style="opacity:0.004" fill="#42a6f5" d="M 363.5,407.5 C 363.897,406.475 364.563,406.308 365.5,407C 364.906,407.464 364.239,407.631 363.5,407.5 Z"/></g>
<g><path style="opacity:0.006" fill="#41a7f6" d="M 367.5,407.5 C 367.897,406.475 368.563,406.308 369.5,407C 368.906,407.464 368.239,407.631 367.5,407.5 Z"/></g>
<g><path style="opacity:0.01" fill="#42a7f4" d="M 372.5,407.5 C 372.897,406.475 373.563,406.308 374.5,407C 373.906,407.464 373.239,407.631 372.5,407.5 Z"/></g>
<g><path style="opacity:0.008" fill="#41a7f6" d="M 375.5,407.5 C 375.897,406.475 376.563,406.308 377.5,407C 376.906,407.464 376.239,407.631 375.5,407.5 Z"/></g>
<g><path style="opacity:0.01" fill="#42a7f7" d="M 379.5,407.5 C 379.897,406.475 380.563,406.308 381.5,407C 380.906,407.464 380.239,407.631 379.5,407.5 Z"/></g>
<g><path style="opacity:0.012" fill="#41a7f5" d="M 383.5,407.5 C 385.288,406.378 387.288,406.211 389.5,407C 387.527,407.495 385.527,407.662 383.5,407.5 Z"/></g>
<g><path style="opacity:0.006" fill="#40a6f5" d="M 391.5,407.5 C 391.897,406.475 392.563,406.308 393.5,407C 392.906,407.464 392.239,407.631 391.5,407.5 Z"/></g>
<g><path style="opacity:0.008" fill="#42a7f4" d="M 395.5,407.5 C 395.897,406.475 396.563,406.308 397.5,407C 396.906,407.464 396.239,407.631 395.5,407.5 Z"/></g>
<g><path style="opacity:0.012" fill="#3fa6f6" d="M 702.5,420.5 C 703.525,420.897 703.692,421.563 703,422.5C 702.536,421.906 702.369,421.239 702.5,420.5 Z"/></g>
<g><path style="opacity:0.004" fill="#44a7f4" d="M 699.5,429.5 C 700.833,430.167 700.833,430.167 699.5,429.5 Z"/></g>
<g><path style="opacity:0.004" fill="#44acfd" d="M 552.5,431.5 C 553.833,432.167 553.833,432.167 552.5,431.5 Z"/></g>
<g><path style="opacity:0.008" fill="#45adfb" d="M 555.5,431.5 C 556.833,432.167 556.833,432.167 555.5,431.5 Z"/></g>
<g><path style="opacity:0.004" fill="#3a3e3e" d="M 83.5,445.5 C 84.8333,446.167 84.8333,446.167 83.5,445.5 Z"/></g>
<g><path style="opacity:0.004" fill="#353d42" d="M 939.5,445.5 C 940.833,446.167 940.833,446.167 939.5,445.5 Z"/></g>
<g><path style="opacity:0.004" fill="#47acfc" d="M 534.5,448.5 C 535.833,449.167 535.833,449.167 534.5,448.5 Z"/></g>
<g><path style="opacity:0.995" fill="#40adfe" d="M 675.5,291.5 C 676.738,291.81 676.738,292.31 675.5,293C 677.095,292.383 678.428,292.716 679.5,294C 678.098,295.342 678.431,296.176 680.5,296.5C 682.404,294.948 684.237,293.948 686,293.5C 686.273,295.329 687.107,296.829 688.5,298C 687.833,298.333 687.167,298.667 686.5,299C 687.103,300.825 687.77,302.659 688.5,304.5C 689.72,303.289 690.887,303.289 692,304.5C 693.841,308.701 695.675,312.868 697.5,317C 694.61,318.892 694.944,319.725 698.5,319.5C 698.421,320.93 698.754,322.264 699.5,323.5C 698.044,323.322 696.711,324.156 695.5,326C 697.669,324.886 699.502,325.386 701,327.5C 701.36,329.608 702.027,331.608 703,333.5C 703.483,332.552 703.649,331.552 703.5,330.5C 707.275,341.051 709.275,352.051 709.5,363.5C 708.686,361.369 708.186,359.036 708,356.5C 707.744,367.848 707.244,379.182 706.5,390.5C 706.167,391.833 705.833,393.167 705.5,394.5C 705.167,393.833 704.833,393.167 704.5,392.5C 703.756,393.991 703.09,395.491 702.5,397C 704.017,398.779 704.851,398.279 705,395.5C 705.262,399.234 704.762,402.901 703.5,406.5C 703.667,407.5 703.833,408.5 704,409.5C 704.232,408.263 704.732,407.263 705.5,406.5C 704.503,411.161 703.503,415.827 702.5,420.5C 695.057,438.723 685.057,455.39 672.5,470.5C 653.37,489.639 633.37,507.639 612.5,524.5C 605.869,529.463 599.869,535.13 594.5,541.5C 590.961,544.213 587.628,547.213 584.5,550.5C 584.631,549.761 584.464,549.094 584,548.5C 575.333,557.817 568.666,568.484 564,580.5C 562.455,579.179 561.289,579.512 560.5,581.5C 561.498,584.028 562.331,584.028 563,581.5C 561.825,595.407 561.158,609.407 561,623.5C 559.999,626.173 558.499,628.507 556.5,630.5C 555.135,631.807 553.802,631.807 552.5,630.5C 551.925,627.132 550.259,626.632 547.5,629C 548.308,629.308 548.975,629.808 549.5,630.5C 548.311,631.429 546.978,631.762 545.5,631.5C 545.649,630.448 545.483,629.448 545,628.5C 544.086,629.654 543.253,629.487 542.5,628C 543.253,626.513 544.086,626.346 545,627.5C 545.311,626.258 544.811,625.258 543.5,624.5C 543.846,623.304 544.346,623.304 545,624.5C 546.046,622.91 547.213,621.41 548.5,620C 547.844,614.412 547.511,608.745 547.5,603C 547.31,595.078 547.977,587.244 549.5,579.5C 549.333,578.833 549.167,578.167 549,577.5C 548.434,579.723 547.6,581.723 546.5,583.5C 546.59,579.786 547.59,576.452 549.5,573.5C 549.351,574.552 549.517,575.552 550,576.5C 555.253,561.713 563.42,548.379 574.5,536.5C 573.8,536.213 573.133,535.88 572.5,535.5C 572.833,534.5 573.5,533.833 574.5,533.5C 575.117,533.611 575.617,533.944 576,534.5C 578.169,530.185 580.503,529.852 583,533.5C 583.492,532.451 583.326,531.451 582.5,530.5C 583.376,529.749 584.376,529.249 585.5,529C 584.833,528.667 584.167,528.333 583.5,528C 584.667,527.5 585.5,526.667 586,525.5C 587,526.833 588,526.833 589,525.5C 589.333,526.167 589.667,526.833 590,527.5C 590.816,524.857 591.316,522.19 591.5,519.5C 594.099,519.451 596.266,518.451 598,516.5C 598.333,516.833 598.667,517.167 599,517.5C 598.042,514.235 599.209,511.735 602.5,510C 601.906,509.536 601.239,509.369 600.5,509.5C 614.307,497.198 628.307,485.032 642.5,473C 664.221,454.127 679.221,430.96 687.5,403.5C 687.343,404.873 687.51,406.207 688,407.5C 689.691,402.601 690.857,397.601 691.5,392.5C 693.451,392.227 694.951,392.893 696,394.5C 696.483,393.552 696.649,392.552 696.5,391.5C 695.178,391.67 694.011,391.337 693,390.5C 692.55,386.812 692.717,383.146 693.5,379.5C 694.675,379.719 695.675,379.386 696.5,378.5C 695.753,378.264 694.92,377.93 694,377.5C 693.393,370.494 692.727,363.494 692,356.5C 691.501,360.486 691.334,364.486 691.5,368.5C 690.372,359.607 689.038,350.607 687.5,341.5C 682.045,322.467 673.712,304.8 662.5,288.5C 662.56,287.957 662.893,287.624 663.5,287.5C 664.694,290.619 666.194,290.952 668,288.5C 668.853,290.125 669.853,290.458 671,289.5C 672.192,291.65 673.692,292.317 675.5,291.5 Z"/></g>
<g><path style="opacity:1" fill="#45bbff" d="M 687.5,341.5 C 687.836,336.589 688.502,336.923 689.5,342.5C 689.333,343.167 689.167,343.833 689,344.5C 688.768,343.263 688.268,342.263 687.5,341.5 Z"/></g>
<g><path style="opacity:0.004" fill="#324452" d="M 859.5,469.5 C 860.833,470.167 860.833,470.167 859.5,469.5 Z"/></g>
<g><path style="opacity:0.004" fill="#40a4f4" d="M 672.5,470.5 C 673.833,471.167 673.833,471.167 672.5,470.5 Z"/></g>
<g><path style="opacity:0.004" fill="#42a6f4" d="M 658.5,485.5 C 659.833,486.167 659.833,486.167 658.5,485.5 Z"/></g>
<g><path style="opacity:0.004" fill="#41a8fa" d="M 481.5,496.5 C 480.833,495.167 480.833,495.167 481.5,496.5 Z"/></g>
<g><path style="opacity:0.004" fill="#45a6f5" d="M 644.5,498.5 C 645.833,499.167 645.833,499.167 644.5,498.5 Z"/></g>
<g><path style="opacity:0.004" fill="#47aafa" d="M 475.5,501.5 C 476.833,502.167 476.833,502.167 475.5,501.5 Z"/></g>
<g><path style="opacity:0.991" fill="#43b0fd" d="M 462.5,528.5 C 464.382,523.735 466.548,519.068 469,514.5C 473.022,508.326 477.189,502.326 481.5,496.5C 483.833,494.5 486.167,492.5 488.5,490.5C 489.363,489.537 490.03,489.537 490.5,490.5C 487.348,493.823 484.348,497.323 481.5,501C 481.645,501.772 481.978,502.439 482.5,503C 477.295,506.375 473.295,510.875 470.5,516.5C 470.833,517.167 471.167,517.833 471.5,518.5C 467.684,521.725 464.85,525.725 463,530.5C 462.536,529.906 462.369,529.239 462.5,528.5 Z"/></g>
<g><path style="opacity:0.008" fill="#44a6f4" d="M 631.5,510.5 C 632.833,511.167 632.833,511.167 631.5,510.5 Z"/></g>
<g><path style="opacity:0.004" fill="#45aaf8" d="M 468.5,511.5 C 469.833,512.167 469.833,512.167 468.5,511.5 Z"/></g>
<g><path style="opacity:0.992" fill="#43b0fe" d="M 600.5,509.5 C 601.239,509.369 601.906,509.536 602.5,510C 599.209,511.735 598.042,514.235 599,517.5C 598.667,517.167 598.333,516.833 598,516.5C 596.266,518.451 594.099,519.451 591.5,519.5C 591.316,522.19 590.816,524.857 590,527.5C 589.667,526.833 589.333,526.167 589,525.5C 588,526.833 587,526.833 586,525.5C 585.5,526.667 584.667,527.5 583.5,528C 584.167,528.333 584.833,528.667 585.5,529C 584.376,529.249 583.376,529.749 582.5,530.5C 583.326,531.451 583.492,532.451 583,533.5C 580.503,529.852 578.169,530.185 576,534.5C 575.617,533.944 575.117,533.611 574.5,533.5C 582.24,524.424 590.906,516.424 600.5,509.5 Z"/></g>
<g><path style="opacity:0.004" fill="#41adf9" d="M 612.5,524.5 C 613.833,525.167 613.833,525.167 612.5,524.5 Z"/></g>
<g><path style="opacity:0.004" fill="#43a9f7" d="M 614.5,524.5 C 615.833,525.167 615.833,525.167 614.5,524.5 Z"/></g>
<g><path style="opacity:0.986" fill="#43b0fd" d="M 491.5,514.5 C 484.495,524.845 478.828,535.845 474.5,547.5C 473.732,548.263 473.232,549.263 473,550.5C 472.833,549.833 472.667,549.167 472.5,548.5C 474.721,541.904 477.388,535.57 480.5,529.5C 480.291,528.914 479.957,528.414 479.5,528C 480.687,526.981 481.687,525.814 482.5,524.5C 481.975,523.808 481.308,523.308 480.5,523C 482.481,522.395 482.815,521.395 481.5,520C 482.784,519.316 483.951,519.483 485,520.5C 486.65,519.109 487.15,517.609 486.5,516C 488.521,515.487 490.021,514.32 491,512.5C 491.464,513.094 491.631,513.761 491.5,514.5 Z"/></g>
<g><path style="opacity:0.004" fill="#43a7f9" d="M 455.5,538.5 C 456.833,539.167 456.833,539.167 455.5,538.5 Z"/></g>
<g><path style="opacity:0.008" fill="#43a9f8" d="M 594.5,541.5 C 595.833,542.167 595.833,542.167 594.5,541.5 Z"/></g>
<g><path style="opacity:0.004" fill="#373e45" d="M 171.5,549.5 C 172.833,550.167 172.833,550.167 171.5,549.5 Z"/></g>
<g><path style="opacity:0.004" fill="#3a3e3f" d="M 943.5,554.5 C 944.833,555.167 944.833,555.167 943.5,554.5 Z"/></g>
<g><path style="opacity:0.996" fill="#44b1fd" d="M 572.5,535.5 C 573.133,535.88 573.8,536.213 574.5,536.5C 563.42,548.379 555.253,561.713 550,576.5C 549.517,575.552 549.351,574.552 549.5,573.5C 554.124,558.906 561.791,546.239 572.5,535.5 Z"/></g>
<g><path style="opacity:0.004" fill="#3d3f3e" d="M 979.5,581.5 C 980.833,582.167 980.833,582.167 979.5,581.5 Z"/></g>
<g><path style="opacity:0.004" fill="#33485d" d="M 267.5,589.5 C 268.833,590.167 268.833,590.167 267.5,589.5 Z"/></g>
<g><path style="opacity:0.939" fill="#42b0fd" d="M 584.5,550.5 C 566.941,570.418 560.108,593.418 564,619.5C 563.056,625.389 560.556,630.389 556.5,634.5C 554.621,634.607 554.288,634.107 555.5,633C 553.881,632.764 552.881,631.931 552.5,630.5C 553.802,631.807 555.135,631.807 556.5,630.5C 558.499,628.507 559.999,626.173 561,623.5C 561.158,609.407 561.825,595.407 563,581.5C 562.331,584.028 561.498,584.028 560.5,581.5C 561.289,579.512 562.455,579.179 564,580.5C 568.666,568.484 575.333,557.817 584,548.5C 584.464,549.094 584.631,549.761 584.5,550.5 Z"/></g>
<g><path style="opacity:0.012" fill="#44aafa" d="M 565.5,590.5 C 566.833,591.167 566.833,591.167 565.5,590.5 Z"/></g>
<g><path style="opacity:0.012" fill="#45aafa" d="M 447.5,602.5 C 448.833,603.167 448.833,603.167 447.5,602.5 Z"/></g>
<g><path style="opacity:0.004" fill="#43aaf8" d="M 447.5,604.5 C 448.525,604.897 448.692,605.563 448,606.5C 447.536,605.906 447.369,605.239 447.5,604.5 Z"/></g>
<g><path style="opacity:0.986" fill="#43b2fe" d="M 453.5,628.5 C 451.926,626.898 451.259,624.898 451.5,622.5C 450.493,613.856 450.327,605.189 451,596.5C 451.001,599.687 451.834,602.52 453.5,605C 453.167,605.333 452.833,605.667 452.5,606C 453.471,607.204 454.471,607.704 455.5,607.5C 454.5,608.333 453.5,609.167 452.5,610C 453.166,613.502 453.333,617.335 453,621.5C 453.306,623.906 454.139,626.073 455.5,628C 455.317,629.684 454.65,629.85 453.5,628.5 Z"/></g>
<g><path style="opacity:0.004" fill="#363e43" d="M 195.5,613.5 C 196.833,614.167 196.833,614.167 195.5,613.5 Z"/></g>
<g><path style="opacity:0.004" fill="#42a8f7" d="M 565.5,616.5 C 566.833,617.167 566.833,617.167 565.5,616.5 Z"/></g>
<g><path style="opacity:0.004" fill="#3e403f" d="M 3.5,621.5 C 4.83333,622.167 4.83333,622.167 3.5,621.5 Z"/></g>
<g><path style="opacity:0.004" fill="#344557" d="M 259.5,621.5 C 260.833,622.167 260.833,622.167 259.5,621.5 Z"/></g>
<g><path style="opacity:0.004" fill="#3e4040" d="M 1019.5,621.5 C 1020.83,622.167 1020.83,622.167 1019.5,621.5 Z"/></g>
<g><path style="opacity:0.004" fill="#44a9f6" d="M 564.5,622.5 C 565.833,623.167 565.833,623.167 564.5,622.5 Z"/></g>
<g><path style="opacity:0.004" fill="#373d3f" d="M 877.5,622.5 C 878.833,623.167 878.833,623.167 877.5,622.5 Z"/></g>
<g><path style="opacity:0.008" fill="#44aaf4" d="M 449.5,623.5 C 450.833,624.167 450.833,624.167 449.5,623.5 Z"/></g>
<g><path style="opacity:0.992" fill="#42b0fe" d="M 468.5,583.5 C 467.262,595.024 467.429,606.358 469,617.5C 470.122,619.624 471.622,621.457 473.5,623C 487.143,624.13 500.81,624.964 514.5,625.5C 522.558,625.059 530.558,624.559 538.5,624C 540.624,622.878 542.457,621.378 544,619.5C 544.076,607.377 544.909,595.377 546.5,583.5C 547.6,581.723 548.434,579.723 549,577.5C 549.167,578.167 549.333,578.833 549.5,579.5C 547.977,587.244 547.31,595.078 547.5,603C 547.511,608.745 547.844,614.412 548.5,620C 547.213,621.41 546.046,622.91 545,624.5C 544.346,623.304 543.846,623.304 543.5,624.5C 544.811,625.258 545.311,626.258 545,627.5C 544.086,626.346 543.253,626.513 542.5,628C 543.253,629.487 544.086,629.654 545,628.5C 545.483,629.448 545.649,630.448 545.5,631.5C 544.883,631.611 544.383,631.944 544,632.5C 541.428,629.049 538.261,628.549 534.5,631C 535.833,632 535.833,633 534.5,634C 533.175,633.852 532.008,634.018 531,634.5C 529.667,633.167 528.333,631.833 527,630.5C 526.667,631.167 526.333,631.833 526,632.5C 523.959,631.577 521.792,631.244 519.5,631.5C 519.5,630.5 519.5,629.5 519.5,628.5C 525.992,628.64 532.492,628.64 539,628.5C 539.432,627.4 538.932,626.733 537.5,626.5C 516.993,627.828 496.493,627.828 476,626.5C 474.941,626.63 474.108,627.13 473.5,628C 476.257,629.03 477.591,630.697 477.5,633C 475.956,634.187 474.289,634.52 472.5,634C 474.679,633.558 475.345,632.558 474.5,631C 472.514,631.794 470.681,631.294 469,629.5C 467.913,631.932 467.413,631.598 467.5,628.5C 466.178,628.33 465.011,628.663 464,629.5C 462.385,627.989 462.385,626.656 464,625.5C 465.185,627.559 466.352,627.726 467.5,626C 466.66,624.829 465.827,623.662 465,622.5C 464.282,623.451 463.449,623.617 462.5,623C 463.641,622.259 463.641,621.425 462.5,620.5C 463.839,618.549 465.172,617.382 466.5,617C 465.978,616.05 465.311,615.216 464.5,614.5C 466.225,609.371 464.891,605.204 460.5,602C 463.789,600.923 464.289,599.09 462,596.5C 461.086,597.654 460.253,597.487 459.5,596C 460.227,594.601 460.727,593.101 461,591.5C 462.016,592.634 462.683,592.301 463,590.5C 464.044,591.623 464.71,592.956 465,594.5C 465.627,587.88 466.294,581.546 467,575.5C 467.183,578.365 467.683,581.031 468.5,583.5 Z"/></g>
<g><path style="opacity:0.004" fill="#43a5f4" d="M 452.5,630.5 C 451.833,629.167 451.833,629.167 452.5,630.5 Z"/></g>
<g><path style="opacity:0.004" fill="#3a3d3e" d="M 891.5,629.5 C 892.833,630.167 892.833,630.167 891.5,629.5 Z"/></g>
<g><path style="opacity:0.004" fill="#45a4f3" d="M 452.5,630.5 C 452.833,630.5 453.167,630.5 453.5,630.5C 453.315,631.17 452.981,631.17 452.5,630.5 Z"/></g>
<g><path style="opacity:0.992" fill="#43b1fe" d="M 478.5,643.5 C 472.507,643.733 466.84,642.066 461.5,638.5C 460.833,637.833 460.167,637.167 459.5,636.5C 459.141,634.629 458.141,633.129 456.5,632C 458.5,631.333 460.5,631.333 462.5,632C 462.167,633 461.833,634 461.5,635C 464.447,638.271 468.113,640.271 472.5,641C 479.571,641.831 484.571,641.664 487.5,640.5C 487.351,639.448 487.517,638.448 488,637.5C 489.098,638.967 490.598,639.801 492.5,640C 492.167,640.333 491.833,640.667 491.5,641C 493.833,641.667 496.167,641.667 498.5,641C 497.833,640.667 497.167,640.333 496.5,640C 497.931,639.535 499.097,638.701 500,637.5C 500.645,638.646 501.478,639.646 502.5,640.5C 505.588,641.119 508.588,641.453 511.5,641.5C 513.088,640.99 514.255,639.99 515,638.5C 517.401,639.602 519.901,639.769 522.5,639C 522.167,638.667 521.833,638.333 521.5,638C 523.194,636.272 524.361,636.772 525,639.5C 525.561,638.978 526.228,638.645 527,638.5C 531.783,639.872 536.616,641.039 541.5,642C 520.427,642.178 499.427,642.678 478.5,643.5 Z"/></g>
<g><path style="opacity:0.004" fill="#44aaf7" d="M 461.5,638.5 C 460.833,639.167 460.833,639.167 461.5,638.5 Z"/></g>
<g><path style="opacity:0.006" fill="#45abf9" d="M 472.5,645.5 C 473.251,644.427 474.251,644.26 475.5,645C 474.552,645.483 473.552,645.649 472.5,645.5 Z"/></g>
<g><path style="opacity:0.004" fill="#44abfa" d="M 536.5,645.5 C 536.897,644.475 537.563,644.308 538.5,645C 537.906,645.464 537.239,645.631 536.5,645.5 Z"/></g>
<g><path style="opacity:0.008" fill="#45adfe" d="M 498.5,645.5 C 499.833,646.167 499.833,646.167 498.5,645.5 Z"/></g>
<g><path style="opacity:0.004" fill="#46aefd" d="M 506.5,645.5 C 507.833,646.167 507.833,646.167 506.5,645.5 Z"/></g>
<g><path style="opacity:0.004" fill="#46aefd" d="M 520.5,645.5 C 521.833,646.167 521.833,646.167 520.5,645.5 Z"/></g>
<g><path style="opacity:0.012" fill="#45adfd" d="M 522.5,645.5 C 523.833,646.167 523.833,646.167 522.5,645.5 Z"/></g>
<g><path style="opacity:0.004" fill="#46acfb" d="M 527.5,646.5 C 527.897,645.475 528.563,645.308 529.5,646C 528.906,646.464 528.239,646.631 527.5,646.5 Z"/></g>
<g><path style="opacity:0.008" fill="#45acfa" d="M 530.5,645.5 C 531.833,646.167 531.833,646.167 530.5,645.5 Z"/></g>
<g><path style="opacity:0.004" fill="#47aafb" d="M 469.5,646.5 C 470.833,647.167 470.833,647.167 469.5,646.5 Z"/></g>
<g><path style="opacity:0.004" fill="#313f49" d="M 785.5,674.5 C 786.833,675.167 786.833,675.167 785.5,674.5 Z"/></g>
<g><path style="opacity:0.012" fill="#45aefc" d="M 482.5,688.5 C 481.761,688.631 481.094,688.464 480.5,688C 481.437,687.308 482.103,687.475 482.5,688.5 Z"/></g>
<g><path style="opacity:0.995" fill="#40adfe" d="M 502.5,685.5 C 500.622,686.38 497.955,686.88 494.5,687C 503.883,687.147 513.217,687.813 522.5,689C 523.888,689.889 523.722,690.389 522,690.5C 519.677,690.189 517.344,689.856 515,689.5C 514.833,689.833 514.667,690.167 514.5,690.5C 516.149,691.148 517.482,692.148 518.5,693.5C 517.513,697.367 518.013,697.367 520,693.5C 520.308,694.308 520.808,694.975 521.5,695.5C 522.833,694.167 524.167,694.167 525.5,695.5C 526.192,694.975 526.692,694.308 527,693.5C 527.648,697.638 529.315,698.305 532,695.5C 533.487,696.253 533.654,697.086 532.5,698C 533.672,698.419 534.672,699.085 535.5,700C 533.152,700.346 531.319,701.513 530,703.5C 529.086,702.346 528.253,702.513 527.5,704C 528.167,704.333 528.833,704.667 529.5,705C 527.833,705.333 526.167,705.667 524.5,706C 526.32,706.2 527.653,707.034 528.5,708.5C 526.559,708.131 524.725,707.464 523,706.5C 522.617,707.056 522.117,707.389 521.5,707.5C 520.198,705.972 518.531,704.972 516.5,704.5C 517.873,704.657 519.207,704.49 520.5,704C 516.078,702.207 511.412,701.373 506.5,701.5C 500.058,702.026 493.725,702.86 487.5,704C 486.667,699.25 486.667,694.417 487.5,689.5C 489.308,689.509 490.975,689.009 492.5,688C 491.207,687.51 489.873,687.343 488.5,687.5C 492.9,685.896 497.566,685.229 502.5,685.5 Z"/></g>
<g><path style="opacity:0.994" fill="#42b0fe" d="M 502.5,685.5 C 512.981,684.436 523.315,685.769 533.5,689.5C 537.639,692.072 541.973,694.405 546.5,696.5C 547.436,697.974 548.77,698.974 550.5,699.5C 555.468,704.638 560.301,709.971 565,715.5C 566.809,718.778 568.309,722.111 569.5,725.5C 569.607,727.379 569.107,727.712 568,726.5C 567.361,723.888 566.194,721.554 564.5,719.5C 563.084,721.139 561.417,721.973 559.5,722C 559.957,721.586 560.291,721.086 560.5,720.5C 559.989,717.026 559.156,713.693 558,710.5C 555.838,712.647 553.504,712.647 551,710.5C 549.989,711.337 548.822,711.67 547.5,711.5C 548.785,713.855 548.785,715.688 547.5,717C 546.365,717.749 545.365,717.583 544.5,716.5C 544.023,715.522 543.357,714.689 542.5,714C 544.23,712.148 545.396,712.314 546,714.5C 546.49,713.207 546.657,711.873 546.5,710.5C 549.812,710.735 550.645,709.735 549,707.5C 548.151,708.983 546.485,710.316 544,711.5C 542.396,710.932 541.73,709.932 542,708.5C 545.93,707.031 546.097,705.864 542.5,705C 543.167,704.667 543.833,704.333 544.5,704C 543.333,703.5 542.5,702.667 542,701.5C 540.961,704.877 539.461,705.543 537.5,703.5C 536.914,703.709 536.414,704.043 536,704.5C 536.667,706.167 536.667,707.833 536,709.5C 537,709.167 538,708.833 539,708.5C 539.667,709.5 539.667,710.5 539,711.5C 537.951,710.483 536.784,710.316 535.5,711C 538.524,712.513 541.191,714.513 543.5,717C 542.906,717.464 542.239,717.631 541.5,717.5C 540.078,716.075 538.411,715.075 536.5,714.5C 534.371,712.05 531.704,710.383 528.5,709.5C 528.5,709.167 528.5,708.833 528.5,708.5C 527.653,707.034 526.32,706.2 524.5,706C 526.167,705.667 527.833,705.333 529.5,705C 528.833,704.667 528.167,704.333 527.5,704C 528.253,702.513 529.086,702.346 530,703.5C 531.319,701.513 533.152,700.346 535.5,700C 534.672,699.085 533.672,698.419 532.5,698C 533.654,697.086 533.487,696.253 532,695.5C 529.315,698.305 527.648,697.638 527,693.5C 526.692,694.308 526.192,694.975 525.5,695.5C 524.167,694.167 522.833,694.167 521.5,695.5C 520.808,694.975 520.308,694.308 520,693.5C 518.013,697.367 517.513,697.367 518.5,693.5C 517.482,692.148 516.149,691.148 514.5,690.5C 514.667,690.167 514.833,689.833 515,689.5C 517.344,689.856 519.677,690.189 522,690.5C 523.722,690.389 523.888,689.889 522.5,689C 513.217,687.813 503.883,687.147 494.5,687C 497.955,686.88 500.622,686.38 502.5,685.5 Z"/></g>
<g><path style="opacity:0.008" fill="#44adfc" d="M 533.5,688.5 C 534.833,689.167 534.833,689.167 533.5,688.5 Z"/></g>
<g><path style="opacity:0.994" fill="#42b0fe" d="M 488.5,687.5 C 489.873,687.343 491.207,687.51 492.5,688C 490.975,689.009 489.308,689.509 487.5,689.5C 486.667,694.417 486.667,699.25 487.5,704C 493.725,702.86 500.058,702.026 506.5,701.5C 511.412,701.373 516.078,702.207 520.5,704C 519.207,704.49 517.873,704.657 516.5,704.5C 505.214,702.825 494.547,704.492 484.5,709.5C 479.693,711.403 475.36,714.07 471.5,717.5C 470.761,717.631 470.094,717.464 469.5,717C 471.211,715.867 471.711,714.367 471,712.5C 469.278,712.038 467.445,711.872 465.5,712C 464.663,710.989 464.33,709.822 464.5,708.5C 466.415,708.784 468.081,708.451 469.5,707.5C 470.552,707.351 471.552,707.517 472.5,708C 471.304,708.654 471.304,709.154 472.5,709.5C 473.478,709.023 474.311,708.357 475,707.5C 475.849,710.521 477.349,711.021 479.5,709C 477.096,708.492 476.429,707.325 477.5,705.5C 478.883,708.076 479.717,707.742 480,704.5C 480.75,703.874 481.584,703.374 482.5,703C 481.333,702.5 480.5,701.667 480,700.5C 478.933,702.283 477.433,702.783 475.5,702C 477.105,700.64 478.605,699.14 480,697.5C 480.333,697.833 480.667,698.167 481,698.5C 481.772,696.045 480.939,694.378 478.5,693.5C 476.726,693.887 475.059,694.553 473.5,695.5C 472.537,695.03 472.537,694.363 473.5,693.5C 476.371,691.565 479.371,689.899 482.5,688.5C 484.5,688.167 486.5,687.833 488.5,687.5 Z"/></g>
<g><path style="opacity:0.004" fill="#3c3f3e" d="M 17.5,690.5 C 18.8333,691.167 18.8333,691.167 17.5,690.5 Z"/></g>
<g><path style="opacity:0.004" fill="#47abfa" d="M 464.5,695.5 C 465.833,696.167 465.833,696.167 464.5,695.5 Z"/></g>
<g><path style="opacity:0.004" fill="#43aaf9" d="M 546.5,695.5 C 547.833,696.167 547.833,696.167 546.5,695.5 Z"/></g>
<g><path style="opacity:0.008" fill="#43adf9" d="M 550.5,698.5 C 551.833,699.167 551.833,699.167 550.5,698.5 Z"/></g>
<g><path style="opacity:0.004" fill="#46abf8" d="M 460.5,701.5 C 459.833,700.167 459.833,700.167 460.5,701.5 Z"/></g>
<g><path style="opacity:0.995" fill="#40adfe" d="M 569.5,725.5 C 572,728.66 573.333,732.327 573.5,736.5C 572.26,733.976 571.093,731.309 570,728.5C 569.641,731.544 568.974,731.878 568,729.5C 567.505,731.473 567.338,733.473 567.5,735.5C 568.822,735.67 569.989,735.337 571,734.5C 572.941,744.106 573.941,754.106 574,764.5C 574.186,761.964 574.686,759.631 575.5,757.5C 573.23,782.403 561.564,801.403 540.5,814.5C 533.414,817.752 526.08,820.419 518.5,822.5C 518.5,821.833 518.167,821.5 517.5,821.5C 509.982,821.878 502.316,821.378 494.5,820C 491.768,819.587 489.101,818.92 486.5,818C 487.993,816.844 487.826,816.01 486,815.5C 485.333,816.167 484.667,816.833 484,817.5C 482.441,816.971 480.941,816.304 479.5,815.5C 478.537,815.97 478.537,816.637 479.5,817.5C 475.71,816.105 472.043,814.438 468.5,812.5C 466.14,810.147 463.473,808.147 460.5,806.5C 459.833,805.167 458.833,804.167 457.5,803.5C 454.805,800.474 452.138,797.474 449.5,794.5C 444.211,786.25 440.878,777.25 439.5,767.5C 438.349,753.542 440.349,739.875 445.5,726.5C 445.03,725.537 444.363,725.537 443.5,726.5C 443.66,724.847 444.326,723.514 445.5,722.5C 445.369,723.239 445.536,723.906 446,724.5C 448.084,720.664 450.417,716.997 453,713.5C 454.085,715.657 455.251,715.824 456.5,714C 455.833,713 455.167,712 454.5,711C 457.589,712.228 460.255,711.561 462.5,709C 460.833,708.667 459.167,708.333 457.5,708C 459.373,705.791 461.54,703.958 464,702.5C 465.749,703.686 467.583,705.352 469.5,707.5C 468.081,708.451 466.415,708.784 464.5,708.5C 464.33,709.822 464.663,710.989 465.5,712C 467.445,711.872 469.278,712.038 471,712.5C 471.711,714.367 471.211,715.867 469.5,717C 470.094,717.464 470.761,717.631 471.5,717.5C 471.5,717.833 471.5,718.167 471.5,718.5C 470.5,719.167 469.5,719.833 468.5,720.5C 468.649,719.448 468.483,718.448 468,717.5C 466.693,718.772 465.193,719.772 463.5,720.5C 463.833,721.167 464.167,721.833 464.5,722.5C 456.539,733.9 453.373,746.567 455,760.5C 455.177,756.644 455.677,752.977 456.5,749.5C 456.512,756.239 457.179,762.905 458.5,769.5C 457.778,769.082 457.278,768.416 457,767.5C 456.626,768.416 456.126,769.25 455.5,770C 457.5,773.333 459.5,776.667 461.5,780C 460.285,782.096 459.451,781.929 459,779.5C 457.933,780.191 456.766,780.691 455.5,781C 457.301,781.317 457.634,781.984 456.5,783C 458.833,783.333 461.167,783.667 463.5,784C 465.891,785.309 465.891,786.309 463.5,787C 464.5,787.333 465.5,787.667 466.5,788C 461.047,789.905 461.214,791.405 467,792.5C 469.53,790.781 471.363,791.281 472.5,794C 470.012,795.165 468.179,796.665 467,798.5C 468.117,798.335 469.284,798.002 470.5,797.5C 472.578,798.56 474.745,800.226 477,802.5C 477.333,801.833 477.667,801.167 478,800.5C 478.718,801.451 479.551,801.617 480.5,801C 479.304,800.346 479.304,799.846 480.5,799.5C 481.799,800.09 482.632,801.09 483,802.5C 486.427,801.69 489.427,802.69 492,805.5C 492.414,805.043 492.914,804.709 493.5,804.5C 497.118,805.351 500.784,806.017 504.5,806.5C 509.07,806.215 513.736,806.215 518.5,806.5C 519.541,804.009 520.374,804.009 521,806.5C 522,805.167 523,803.833 524,802.5C 538.14,798.043 548.473,788.376 555,773.5C 556.281,773.619 557.448,773.119 558.5,772C 557.572,771.612 556.905,770.945 556.5,770C 558.078,764.945 559.078,759.778 559.5,754.5C 558.627,748.138 557.627,741.805 556.5,735.5C 559.049,735.387 561.382,736.054 563.5,737.5C 564.287,736.758 564.953,735.925 565.5,735C 564.98,733.112 563.314,731.779 560.5,731C 561.5,730.667 562.5,730.333 563.5,730C 561.236,729.764 559.069,729.264 557,728.5C 556.667,728.833 556.333,729.167 556,729.5C 556.488,725.77 555.155,725.436 552,728.5C 551.5,727.5 551,726.5 550.5,725.5C 551.834,725.471 553.167,724.637 554.5,723C 552.185,721.891 550.685,720.057 550,717.5C 549.333,718.833 548.667,720.167 548,721.5C 546.981,720.313 545.814,719.313 544.5,718.5C 543.893,718.624 543.56,718.957 543.5,719.5C 542.833,719.167 542.167,718.833 541.5,718.5C 541.5,718.167 541.5,717.833 541.5,717.5C 542.239,717.631 542.906,717.464 543.5,717C 541.191,714.513 538.524,712.513 535.5,711C 536.784,710.316 537.951,710.483 539,711.5C 539.667,710.5 539.667,709.5 539,708.5C 538,708.833 537,709.167 536,709.5C 536.667,707.833 536.667,706.167 536,704.5C 536.414,704.043 536.914,703.709 537.5,703.5C 539.461,705.543 540.961,704.877 542,701.5C 542.5,702.667 543.333,703.5 544.5,704C 543.833,704.333 543.167,704.667 542.5,705C 546.097,705.864 545.93,707.031 542,708.5C 541.73,709.932 542.396,710.932 544,711.5C 546.485,710.316 548.151,708.983 549,707.5C 550.645,709.735 549.812,710.735 546.5,710.5C 546.657,711.873 546.49,713.207 546,714.5C 545.396,712.314 544.23,712.148 542.5,714C 543.357,714.689 544.023,715.522 544.5,716.5C 545.365,717.583 546.365,717.749 547.5,717C 548.785,715.688 548.785,713.855 547.5,711.5C 548.822,711.67 549.989,711.337 551,710.5C 553.504,712.647 555.838,712.647 558,710.5C 559.156,713.693 559.989,717.026 560.5,720.5C 560.291,721.086 559.957,721.586 559.5,722C 561.417,721.973 563.084,721.139 564.5,719.5C 566.194,721.554 567.361,723.888 568,726.5C 569.107,727.712 569.607,727.379 569.5,725.5 Z M 516.5,704.5 C 518.531,704.972 520.198,705.972 521.5,707.5C 522.117,707.389 522.617,707.056 523,706.5C 524.725,707.464 526.559,708.131 528.5,708.5C 528.5,708.833 528.5,709.167 528.5,709.5C 531.704,710.383 534.371,712.05 536.5,714.5C 538.411,715.075 540.078,716.075 541.5,717.5C 541.5,717.833 541.5,718.167 541.5,718.5C 542.167,718.833 542.833,719.167 543.5,719.5C 548.999,725.496 552.666,732.496 554.5,740.5C 560.238,763.782 553.238,782.282 533.5,796C 530.029,798.072 526.362,799.572 522.5,800.5C 492.35,808.425 471.017,798.092 458.5,769.5C 457.179,762.905 456.512,756.239 456.5,749.5C 458.051,738.743 462.051,729.076 468.5,720.5C 469.5,719.833 470.5,719.167 471.5,718.5C 471.5,718.167 471.5,717.833 471.5,717.5C 475.36,714.07 479.693,711.403 484.5,709.5C 494.547,704.492 505.214,702.825 516.5,704.5 Z"/></g>
<g><path style="opacity:0.997" fill="#40aefe" d="M 473.5,693.5 C 472.537,694.363 472.537,695.03 473.5,695.5C 475.059,694.553 476.726,693.887 478.5,693.5C 480.939,694.378 481.772,696.045 481,698.5C 480.667,698.167 480.333,697.833 480,697.5C 478.605,699.14 477.105,700.64 475.5,702C 477.433,702.783 478.933,702.283 480,700.5C 480.5,701.667 481.333,702.5 482.5,703C 481.584,703.374 480.75,703.874 480,704.5C 479.717,707.742 478.883,708.076 477.5,705.5C 476.429,707.325 477.096,708.492 479.5,709C 477.349,711.021 475.849,710.521 475,707.5C 474.311,708.357 473.478,709.023 472.5,709.5C 471.304,709.154 471.304,708.654 472.5,708C 471.552,707.517 470.552,707.351 469.5,707.5C 469.489,705.983 468.823,704.816 467.5,704C 470.425,704.54 472.758,703.373 474.5,700.5C 473.645,699.707 472.811,700.04 472,701.5C 471.667,700.833 471.333,700.167 471,699.5C 470.333,700.833 469.667,700.833 469,699.5C 468.549,701.929 467.715,702.096 466.5,700C 468.349,698.907 470.016,697.574 471.5,696C 471.272,695.601 470.938,695.435 470.5,695.5C 470.973,694.094 471.973,693.427 473.5,693.5 Z"/></g>
<g><path style="opacity:0.004" fill="#46aaf6" d="M 451.5,708.5 C 452.833,709.167 452.833,709.167 451.5,708.5 Z"/></g>
<g><path style="opacity:0.991" fill="#42b0fd" d="M 470.5,695.5 C 470.938,695.435 471.272,695.601 471.5,696C 470.016,697.574 468.349,698.907 466.5,700C 467.715,702.096 468.549,701.929 469,699.5C 469.667,700.833 470.333,700.833 471,699.5C 471.333,700.167 471.667,700.833 472,701.5C 472.811,700.04 473.645,699.707 474.5,700.5C 472.758,703.373 470.425,704.54 467.5,704C 468.823,704.816 469.489,705.983 469.5,707.5C 467.583,705.352 465.749,703.686 464,702.5C 461.54,703.958 459.373,705.791 457.5,708C 459.167,708.333 460.833,708.667 462.5,709C 460.255,711.561 457.589,712.228 454.5,711C 455.167,712 455.833,713 456.5,714C 455.251,715.824 454.085,715.657 453,713.5C 450.417,716.997 448.084,720.664 446,724.5C 445.536,723.906 445.369,723.239 445.5,722.5C 449.311,714.683 454.311,707.683 460.5,701.5C 463.589,699.075 466.922,697.075 470.5,695.5 Z"/></g>
<g><path style="opacity:0.004" fill="#373b3d" d="M 171.5,709.5 C 172.833,710.167 172.833,710.167 171.5,709.5 Z"/></g>
<g><path style="opacity:0.004" fill="#3b3c3e" d="M 877.5,710.5 C 878.833,711.167 878.833,711.167 877.5,710.5 Z"/></g>
<g><path style="opacity:0.004" fill="#42a8f5" d="M 447.5,713.5 C 448.833,714.167 448.833,714.167 447.5,713.5 Z"/></g>
<g><path style="opacity:0.004" fill="#43a6f5" d="M 565.5,713.5 C 566.833,714.167 566.833,714.167 565.5,713.5 Z"/></g>
<g><path style="opacity:0.004" fill="#3b3d3e" d="M 907.5,717.5 C 908.833,718.167 908.833,718.167 907.5,717.5 Z"/></g>
<g><path style="opacity:0.008" fill="#43a6f2" d="M 571.5,725.5 C 572.833,726.167 572.833,726.167 571.5,725.5 Z"/></g>
<g><path style="opacity:0.004" fill="#3b3e3e" d="M 85.5,726.5 C 86.8333,727.167 86.8333,727.167 85.5,726.5 Z"/></g>
<g><path style="opacity:1" fill="#44b2fd" d="M 468.5,720.5 C 462.051,729.076 458.051,738.743 456.5,749.5C 455.677,752.977 455.177,756.644 455,760.5C 453.373,746.567 456.539,733.9 464.5,722.5C 464.167,721.833 463.833,721.167 463.5,720.5C 465.193,719.772 466.693,718.772 468,717.5C 468.483,718.448 468.649,719.448 468.5,720.5 Z"/></g>
<g><path style="opacity:0.008" fill="#44a5f2" d="M 572.5,727.5 C 573.833,728.167 573.833,728.167 572.5,727.5 Z"/></g>
<g><path style="opacity:0.004" fill="#46a9f7" d="M 440.5,731.5 C 439.833,730.167 439.833,730.167 440.5,731.5 Z"/></g>
<g><path style="opacity:0.008" fill="#42a4f2" d="M 573.5,729.5 C 574.525,729.897 574.692,730.563 574,731.5C 573.536,730.906 573.369,730.239 573.5,729.5 Z"/></g>
<g><path style="opacity:0.004" fill="#47a2f0" d="M 576.5,746.5 C 577.833,747.167 577.833,747.167 576.5,746.5 Z"/></g>
<g><path style="opacity:0.98" fill="#43b0fc" d="M 573.5,736.5 C 575.628,743.323 576.295,750.323 575.5,757.5C 574.686,759.631 574.186,761.964 574,764.5C 573.941,754.106 572.941,744.106 571,734.5C 569.989,735.337 568.822,735.67 567.5,735.5C 567.338,733.473 567.505,731.473 568,729.5C 568.974,731.878 569.641,731.544 570,728.5C 571.093,731.309 572.26,733.976 573.5,736.5 Z"/></g>
<g><path style="opacity:0.004" fill="#393d3d" d="M 139.5,749.5 C 140.833,750.167 140.833,750.167 139.5,749.5 Z"/></g>
<g><path style="opacity:0.004" fill="#46a5f2" d="M 435.5,749.5 C 436.525,749.897 436.692,750.563 436,751.5C 435.536,750.906 435.369,750.239 435.5,749.5 Z"/></g>
<g><path style="opacity:0.004" fill="#373a3f" d="M 188.5,752.5 C 189.833,753.167 189.833,753.167 188.5,752.5 Z"/></g>
<g><path style="opacity:0.319" fill="#43a4f4" d="M 438.5,745.5 C 438.5,750.833 438.5,756.167 438.5,761.5C 437.761,761.631 437.094,761.464 436.5,761C 437.145,755.733 437.812,750.567 438.5,745.5 Z"/></g>
<g><path style="opacity:0.008" fill="#46a4f2" d="M 435.5,752.5 C 436.613,753.946 436.78,755.613 436,757.5C 435.506,755.866 435.34,754.199 435.5,752.5 Z"/></g>
<g><path style="opacity:0.012" fill="#45a5f3" d="M 435.5,758.5 C 436.833,759.167 436.833,759.167 435.5,758.5 Z"/></g>
<g><path style="opacity:0.98" fill="#45b2fd" d="M 439.5,767.5 C 438.539,765.735 438.205,763.735 438.5,761.5C 438.5,756.167 438.5,750.833 438.5,745.5C 438.846,740.784 439.513,736.117 440.5,731.5C 441.687,729.928 442.687,728.261 443.5,726.5C 444.363,725.537 445.03,725.537 445.5,726.5C 440.349,739.875 438.349,753.542 439.5,767.5 Z"/></g>
<g><path style="opacity:0.012" fill="#44a6f1" d="M 436.5,764.5 C 437.833,765.167 437.833,765.167 436.5,764.5 Z"/></g>
<g><path style="opacity:0.004" fill="#3a3c3d" d="M 163.5,773.5 C 164.833,774.167 164.833,774.167 163.5,773.5 Z"/></g>
<g><path style="opacity:0.012" fill="#40a2f2" d="M 574.5,772.5 C 575.525,772.897 575.692,773.563 575,774.5C 574.536,773.906 574.369,773.239 574.5,772.5 Z"/></g>
<g><path style="opacity:0.012" fill="#43a3f1" d="M 439.5,777.5 C 440.833,778.167 440.833,778.167 439.5,777.5 Z"/></g>
<g><path style="opacity:0.012" fill="#43a4f1" d="M 440.5,780.5 C 441.833,781.167 441.833,781.167 440.5,780.5 Z"/></g>
<g><path style="opacity:0.004" fill="#43a0ef" d="M 571.5,782.5 C 572.833,783.167 572.833,783.167 571.5,782.5 Z"/></g>
<g><path style="opacity:0.004" fill="#42a4f0" d="M 449.5,794.5 C 448.833,795.167 448.833,795.167 449.5,794.5 Z"/></g>
<g><path style="opacity:0.993" fill="#42affd" d="M 458.5,769.5 C 471.017,798.092 492.35,808.425 522.5,800.5C 526.362,799.572 530.029,798.072 533.5,796C 553.238,782.282 560.238,763.782 554.5,740.5C 552.666,732.496 548.999,725.496 543.5,719.5C 543.56,718.957 543.893,718.624 544.5,718.5C 545.814,719.313 546.981,720.313 548,721.5C 548.667,720.167 549.333,718.833 550,717.5C 550.685,720.057 552.185,721.891 554.5,723C 553.167,724.637 551.834,725.471 550.5,725.5C 551,726.5 551.5,727.5 552,728.5C 555.155,725.436 556.488,725.77 556,729.5C 556.333,729.167 556.667,728.833 557,728.5C 559.069,729.264 561.236,729.764 563.5,730C 562.5,730.333 561.5,730.667 560.5,731C 563.314,731.779 564.98,733.112 565.5,735C 564.953,735.925 564.287,736.758 563.5,737.5C 561.382,736.054 559.049,735.387 556.5,735.5C 557.627,741.805 558.627,748.138 559.5,754.5C 559.078,759.778 558.078,764.945 556.5,770C 556.905,770.945 557.572,771.612 558.5,772C 557.448,773.119 556.281,773.619 555,773.5C 548.473,788.376 538.14,798.043 524,802.5C 523,803.833 522,805.167 521,806.5C 520.374,804.009 519.541,804.009 518.5,806.5C 513.736,806.215 509.07,806.215 504.5,806.5C 500.784,806.017 497.118,805.351 493.5,804.5C 492.914,804.709 492.414,805.043 492,805.5C 489.427,802.69 486.427,801.69 483,802.5C 482.632,801.09 481.799,800.09 480.5,799.5C 479.304,799.846 479.304,800.346 480.5,801C 479.551,801.617 478.718,801.451 478,800.5C 477.667,801.167 477.333,801.833 477,802.5C 474.745,800.226 472.578,798.56 470.5,797.5C 469.284,798.002 468.117,798.335 467,798.5C 468.179,796.665 470.012,795.165 472.5,794C 471.363,791.281 469.53,790.781 467,792.5C 461.214,791.405 461.047,789.905 466.5,788C 465.5,787.667 464.5,787.333 463.5,787C 465.891,786.309 465.891,785.309 463.5,784C 461.167,783.667 458.833,783.333 456.5,783C 457.634,781.984 457.301,781.317 455.5,781C 456.766,780.691 457.933,780.191 459,779.5C 459.451,781.929 460.285,782.096 461.5,780C 459.5,776.667 457.5,773.333 455.5,770C 456.126,769.25 456.626,768.416 457,767.5C 457.278,768.416 457.778,769.082 458.5,769.5 Z"/></g>
<g><path style="opacity:0.004" fill="#42a2f0" d="M 450.5,797.5 C 451.833,798.167 451.833,798.167 450.5,797.5 Z"/></g>
<g><path style="opacity:0.004" fill="#41a0ef" d="M 457.5,803.5 C 456.833,804.167 456.833,804.167 457.5,803.5 Z"/></g>
<g><path style="opacity:0.008" fill="#43a1ee" d="M 460.5,806.5 C 459.833,807.167 459.833,807.167 460.5,806.5 Z"/></g>
<g><path style="opacity:0.004" fill="#3c3e3d" d="M 60.5,811.5 C 61.8333,812.167 61.8333,812.167 60.5,811.5 Z"/></g>
<g><path style="opacity:0.008" fill="#42a2f0" d="M 468.5,812.5 C 467.833,813.167 467.833,813.167 468.5,812.5 Z"/></g>
<g><path style="opacity:0.008" fill="#43a0eb" d="M 544.5,812.5 C 545.833,813.167 545.833,813.167 544.5,812.5 Z"/></g>
<g><path style="opacity:0.004" fill="#3d3e3e" d="M 43.5,813.5 C 44.8333,814.167 44.8333,814.167 43.5,813.5 Z"/></g>
<g><path style="opacity:0.004" fill="#31414a" d="M 739.5,813.5 C 740.833,814.167 740.833,814.167 739.5,813.5 Z"/></g>
<g><path style="opacity:0.008" fill="#43a1ec" d="M 469.5,814.5 C 470.833,815.167 470.833,815.167 469.5,814.5 Z"/></g>
<g><path style="opacity:0.008" fill="#40a4ee" d="M 540.5,814.5 C 541.833,815.167 541.833,815.167 540.5,814.5 Z"/></g>
<g><path style="opacity:0.995" fill="#42affc" d="M 517.5,821.5 C 511.862,822.22 506.196,822.553 500.5,822.5C 497.5,822.5 494.5,822.5 491.5,822.5C 487.349,821.227 483.349,819.56 479.5,817.5C 478.537,816.637 478.537,815.97 479.5,815.5C 480.941,816.304 482.441,816.971 484,817.5C 484.667,816.833 485.333,816.167 486,815.5C 487.826,816.01 487.993,816.844 486.5,818C 489.101,818.92 491.768,819.587 494.5,820C 502.316,821.378 509.982,821.878 517.5,821.5 Z"/></g>
<g><path style="opacity:0.004" fill="#419de8" d="M 479.5,821.5 C 480.525,821.897 480.692,822.563 480,823.5C 479.536,822.906 479.369,822.239 479.5,821.5 Z"/></g>
<g><path style="opacity:0.004" fill="#3f9de9" d="M 526.5,821.5 C 527.833,822.167 527.833,822.167 526.5,821.5 Z"/></g>
<g><path style="opacity:0.004" fill="#314c62" d="M 683.5,821.5 C 684.833,822.167 684.833,822.167 683.5,821.5 Z"/></g>
<g><path style="opacity:0.007" fill="#409eeb" d="M 491.5,822.5 C 490.399,823.598 489.066,823.765 487.5,823C 488.793,822.51 490.127,822.343 491.5,822.5 Z"/></g>
<g><path style="opacity:0.022" fill="#399ff0" d="M 517.5,821.5 C 518.167,821.5 518.5,821.833 518.5,822.5C 512.344,823.601 506.344,823.601 500.5,822.5C 506.196,822.553 511.862,822.22 517.5,821.5 Z"/></g>
<g><path style="opacity:0.004" fill="#324455" d="M 331.5,869.5 C 332.833,870.167 332.833,870.167 331.5,869.5 Z"/></g>
<g><path style="opacity:0.004" fill="#3a3b3c" d="M 147.5,877.5 C 148.833,878.167 148.833,878.167 147.5,877.5 Z"/></g>
<g><path style="opacity:0.004" fill="#33393e" d="M 243.5,885.5 C 244.833,886.167 244.833,886.167 243.5,885.5 Z"/></g>
<g><path style="opacity:0.004" fill="#3c3e3c" d="M 107.5,901.5 C 108.833,902.167 108.833,902.167 107.5,901.5 Z"/></g>
<g><path style="opacity:0.004" fill="#2f393f" d="M 731.5,901.5 C 732.833,902.167 732.833,902.167 731.5,901.5 Z"/></g>
<g><path style="opacity:0.004" fill="#323a3f" d="M 291.5,917.5 C 292.833,918.167 292.833,918.167 291.5,917.5 Z"/></g>
<g><path style="opacity:0.004" fill="#2f383f" d="M 725.5,918.5 C 726.833,919.167 726.833,919.167 725.5,918.5 Z"/></g>
<g><path style="opacity:0.004" fill="#3d3d3e" d="M 95.5,922.5 C 96.8333,923.167 96.8333,923.167 95.5,922.5 Z"/></g>
<g><path style="opacity:0.004" fill="#37393a" d="M 817.5,922.5 C 818.833,923.167 818.833,923.167 817.5,922.5 Z"/></g>
<g><path style="opacity:0.004" fill="#303b45" d="M 331.5,925.5 C 332.833,926.167 332.833,926.167 331.5,925.5 Z"/></g>
<g><path style="opacity:0.004" fill="#3b3c3c" d="M 851.5,925.5 C 852.833,926.167 852.833,926.167 851.5,925.5 Z"/></g>
<g><path style="opacity:0.004" fill="#3c3e3c" d="M 899.5,925.5 C 900.833,926.167 900.833,926.167 899.5,925.5 Z"/></g>
<g><path style="opacity:0.004" fill="#33383c" d="M 244.5,928.5 C 245.833,929.167 245.833,929.167 244.5,928.5 Z"/></g>
<g><path style="opacity:0.008" fill="#303a40" d="M 307.5,933.5 C 308.833,934.167 308.833,934.167 307.5,933.5 Z"/></g>
<g><path style="opacity:0.004" fill="#3f413f" d="M 1011.5,933.5 C 1012.83,934.167 1012.83,934.167 1011.5,933.5 Z"/></g>
<g><path style="opacity:0.004" fill="#304556" d="M 539.5,957.5 C 540.833,958.167 540.833,958.167 539.5,957.5 Z"/></g>
<g><path style="opacity:0.004" fill="#2f3b42" d="M 643.5,957.5 C 644.833,958.167 644.833,958.167 643.5,957.5 Z"/></g>
<g><path style="opacity:0.004" fill="#3f3f3e" d="M 69.5,958.5 C 70.8333,959.167 70.8333,959.167 69.5,958.5 Z"/></g>
<g><path style="opacity:0.004" fill="#393c3b" d="M 842.5,964.5 C 843.833,965.167 843.833,965.167 842.5,964.5 Z"/></g>
<g><path style="opacity:0.004" fill="#3e3f3e" d="M 915.5,965.5 C 916.833,966.167 916.833,966.167 915.5,965.5 Z"/></g>
<g><path style="opacity:0.004" fill="#393b3a" d="M 819.5,973.5 C 820.833,974.167 820.833,974.167 819.5,973.5 Z"/></g>
<g><path style="opacity:0.004" fill="#31393d" d="M 332.5,976.5 C 333.833,977.167 333.833,977.167 332.5,976.5 Z"/></g>
<g><path style="opacity:0.004" fill="#3a3b3b" d="M 196.5,984.5 C 197.833,985.167 197.833,985.167 196.5,984.5 Z"/></g>
<g><path style="opacity:0.004" fill="#2f3f4c" d="M 507.5,989.5 C 508.833,990.167 508.833,990.167 507.5,989.5 Z"/></g>
</svg>
