<svg xmlns="http://www.w3.org/2000/svg" width="24" height="24" viewBox="3 0 24 24" fill="none">
<path d="M15.022 13.7083L15.022 23.9575L12.3603 21.2958C12.2725 21.208 12.2063 21.1009 12.167 20.9831L11.371 18.595C11.3219 18.4478 11.3266 18.2879 11.3843 18.1438C11.9372 16.7615 12.8257 15.5385 13.9694 14.5854L15.022 13.7083Z" fill="url(#paint0_linear_25555_221980)"/>
<path d="M15.022 13.7083L15.022 23.9575L17.6838 21.2958C17.7716 21.208 17.8377 21.1009 17.877 20.9831L18.673 18.595C18.7221 18.4478 18.7174 18.2879 18.6598 18.1438C18.1068 16.7615 17.2184 15.5385 16.0746 14.5854L15.022 13.7083Z" fill="url(#paint1_linear_25555_221980)"/>
<path d="M10.2542 11.3743L3.00685 18.6216L3.00683 14.8574C3.00683 14.7332 3.03575 14.6107 3.09129 14.4996L4.21702 12.2481C4.28643 12.1093 4.40279 11.9996 4.54545 11.9385C5.91392 11.352 7.40688 11.1155 8.88961 11.2503L10.2542 11.3743Z" fill="url(#paint2_linear_25555_221980)"/>
<path d="M10.2542 11.3743L3.00685 18.6216L6.77108 18.6216C6.89528 18.6216 7.01777 18.5927 7.12885 18.5372L9.38034 17.4115C9.51915 17.342 9.62887 17.2257 9.69001 17.083C10.2765 15.7146 10.513 14.2216 10.3782 12.7389L10.2542 11.3743Z" fill="url(#paint3_linear_25555_221980)"/>
<path d="M19.8052 11.3743L27.0525 18.6216L27.0525 14.8574C27.0525 14.7332 27.0236 14.6107 26.968 14.4996L25.8423 12.2481C25.7729 12.1093 25.6565 11.9996 25.5139 11.9385C24.1454 11.352 22.6524 11.1155 21.1697 11.2503L19.8052 11.3743Z" fill="url(#paint4_linear_25555_221980)"/>
<path d="M19.8052 11.3743L27.0525 18.6216L23.2882 18.6216C23.164 18.6216 23.0416 18.5927 22.9305 18.5372L20.679 17.4115C20.5402 17.342 20.4305 17.2257 20.3693 17.083C19.7828 15.7146 19.5463 14.2216 19.6811 12.7389L19.8052 11.3743Z" fill="url(#paint5_linear_25555_221980)"/>
<circle cx="15.022" cy="8.73887" r="6.83288" fill="url(#paint6_linear_25555_221980)" stroke="url(#paint7_linear_25555_221980)" stroke-width="3.72703"/>
<circle cx="15.022" cy="8.7389" r="2.48468" fill="#E0EBFF"/>







<defs>
<linearGradient id="paint0_linear_25555_221980" x1="15.022" y1="13.7083" x2="15.022" y2="23.647" gradientUnits="userSpaceOnUse">
<stop stop-color="#8100E7"/>
<stop offset="0.536458" stop-color="#3EFFF3"/>
<stop offset="1" stop-color="#00BBF5"/>
</linearGradient>
<linearGradient id="paint1_linear_25555_221980" x1="15.022" y1="13.7083" x2="15.022" y2="23.647" gradientUnits="userSpaceOnUse">
<stop stop-color="#1D0AFF"/>
<stop offset="0.510417" stop-color="#00C2FF"/>
</linearGradient>
<linearGradient id="paint2_linear_25555_221980" x1="10.2542" y1="11.3743" x2="3.2264" y2="18.4021" gradientUnits="userSpaceOnUse">
<stop stop-color="#8100E7"/>
<stop offset="0.536458" stop-color="#3EFFF3"/>
<stop offset="1" stop-color="#00BBF5"/>
</linearGradient>
<linearGradient id="paint3_linear_25555_221980" x1="10.2542" y1="11.3743" x2="3.2264" y2="18.4021" gradientUnits="userSpaceOnUse">
<stop stop-color="#1D0AFF"/>
<stop offset="0.510417" stop-color="#00C2FF"/>
</linearGradient>
<linearGradient id="paint4_linear_25555_221980" x1="19.8052" y1="11.3743" x2="26.8329" y2="18.4021" gradientUnits="userSpaceOnUse">
<stop stop-color="#1D0AFF"/>
<stop offset="0.510417" stop-color="#00C2FF"/>
</linearGradient>
<linearGradient id="paint5_linear_25555_221980" x1="19.8052" y1="11.3743" x2="26.8329" y2="18.4021" gradientUnits="userSpaceOnUse">
<stop stop-color="#8100E7"/>
<stop offset="0.536458" stop-color="#3EFFF3"/>
<stop offset="1" stop-color="#00BBF5"/>
</linearGradient>
<linearGradient id="paint6_linear_25555_221980" x1="15.022" y1="0.0424805" x2="15.022" y2="17.4353" gradientUnits="userSpaceOnUse">
<stop stop-color="#232323"/>
<stop offset="0.489583" stop-color="#202947"/>
<stop offset="1" stop-color="#232323"/>
</linearGradient>
<linearGradient id="paint7_linear_25555_221980" x1="15.022" y1="0.0424805" x2="15.022" y2="17.4353" gradientUnits="userSpaceOnUse">
<stop stop-color="#57FFD7"/>
<stop offset="0.510417" stop-color="#E95FFF"/>
<stop offset="1" stop-color="#01FFFF"/>
</linearGradient>
<linearGradient id="paint8_linear_25555_221980" x1="109.5" y1="17.5" x2="114.188" y2="6.68151" gradientUnits="userSpaceOnUse">
<stop stop-color="#C494FF"/>
<stop offset="1" stop-color="#14F195"/>
</linearGradient>
</defs>
</svg>