<svg width="16" height="16" viewBox="0 0 16 16" fill="none" xmlns="http://www.w3.org/2000/svg">
<g clip-path="url(#clip0_24153_69954)">
<path d="M14.5987 11.1593L12.3976 13.4589C12.3497 13.5089 12.2918 13.5487 12.2275 13.5759C12.1632 13.6032 12.0938 13.6172 12.0237 13.6172H1.58951C1.53973 13.6172 1.49102 13.603 1.44939 13.5764C1.40776 13.5498 1.37501 13.5119 1.35516 13.4674C1.33532 13.423 1.32924 13.3738 1.33769 13.326C1.34613 13.2782 1.36872 13.2338 1.40269 13.1984L3.60542 10.8987C3.65314 10.8489 3.71084 10.8092 3.77496 10.782C3.83909 10.7547 3.90827 10.7406 3.97822 10.7405H14.4118C14.4616 10.7405 14.5103 10.7547 14.5519 10.7813C14.5935 10.8079 14.6263 10.8458 14.6462 10.8902C14.666 10.9347 14.6721 10.9839 14.6636 11.0317C14.6552 11.0795 14.6326 11.1238 14.5987 11.1593ZM12.3976 6.52848C12.3497 6.47852 12.2918 6.43869 12.2275 6.41147C12.1632 6.38426 12.0938 6.37023 12.0237 6.37027H1.58951C1.53973 6.37027 1.49102 6.38444 1.44939 6.41104C1.40776 6.43764 1.37501 6.4755 1.35516 6.51997C1.33532 6.56446 1.32924 6.61362 1.33769 6.66143C1.34613 6.70921 1.36872 6.75357 1.40269 6.78904L3.60542 9.08869C3.65314 9.13851 3.71084 9.17824 3.77496 9.20547C3.83909 9.23267 3.90827 9.24679 3.97822 9.24689H14.4118C14.4616 9.24689 14.5103 9.23273 14.5519 9.20613C14.5935 9.17952 14.6263 9.14166 14.6462 9.09719C14.666 9.0527 14.6721 9.00354 14.6636 8.95574C14.6552 8.90795 14.6326 8.86359 14.5987 8.82812L12.3976 6.52848ZM1.58951 4.87663H12.0237C12.0938 4.87666 12.1632 4.86264 12.2275 4.83542C12.2918 4.8082 12.3497 4.76837 12.3976 4.71842L14.5987 2.41877C14.6326 2.38331 14.6552 2.33895 14.6636 2.29116C14.6721 2.24336 14.666 2.1942 14.6462 2.14971C14.6263 2.10523 14.5935 2.06737 14.5519 2.04077C14.5103 2.01417 14.4616 2 14.4118 2H3.97822C3.90827 2.00012 3.83909 2.01422 3.77496 2.04143C3.71084 2.06865 3.65314 2.10839 3.60542 2.15822L1.40325 4.45786C1.36932 4.49328 1.34674 4.5376 1.33828 4.58533C1.32982 4.63308 1.33584 4.6822 1.35562 4.72667C1.37539 4.77113 1.40805 4.80899 1.4496 4.83563C1.49115 4.86227 1.53977 4.87651 1.58951 4.87663Z" fill="url(#paint0_linear_24153_69954)"/>
</g>
<defs>
<linearGradient id="paint0_linear_24153_69954" x1="2.45947" y1="13.894" x2="13.0823" y2="1.60182" gradientUnits="userSpaceOnUse">
<stop offset="0.08" stop-color="#9945FF"/>
<stop offset="0.3" stop-color="#8752F3"/>
<stop offset="0.5" stop-color="#5497D5"/>
<stop offset="0.6" stop-color="#43B4CA"/>
<stop offset="0.72" stop-color="#28E0B9"/>
<stop offset="0.97" stop-color="#19FB9B"/>
</linearGradient>
<clipPath id="clip0_24153_69954">
<rect width="13.3333" height="11.6172" fill="white" transform="translate(1.33398 2)"/>
</clipPath>
</defs>
</svg>
